<?xml version="1.0" encoding="UTF-8"?>
<!DOCTYPE svg PUBLIC "-//W3C//DTD SVG 1.1//EN" "http://www.w3.org/Graphics/SVG/1.1/DTD/svg11.dtd">
<svg xmlns="http://www.w3.org/2000/svg" version="1.1" width="815px" height="268px" style="shape-rendering:geometricPrecision; text-rendering:geometricPrecision; image-rendering:optimizeQuality; fill-rule:evenodd; clip-rule:evenodd" xmlns:xlink="http://www.w3.org/1999/xlink">
<g><path style="opacity:1" fill="#dc7955" d="M 139.5,20.5 C 136.219,19.1478 132.719,18.4812 129,18.5C 126.049,18.8825 123.215,19.5492 120.5,20.5C 120.715,22.1788 120.048,23.1788 118.5,23.5C 118.557,22.391 118.89,21.391 119.5,20.5C 119.5,20.1667 119.5,19.8333 119.5,19.5C 121.027,19.573 122.027,18.9063 122.5,17.5C 126.643,15.2346 130.977,15.0679 135.5,17C 137.324,17.66 138.657,18.8267 139.5,20.5 Z"/></g>
<g><path style="opacity:0.969" fill="#efc7b9" d="M 122.5,17.5 C 122.027,18.9063 121.027,19.573 119.5,19.5C 119.973,18.0937 120.973,17.427 122.5,17.5 Z"/></g>
<g><path style="opacity:0.997" fill="#e5582a" d="M 139.5,20.5 C 141.404,20.7376 142.738,21.7376 143.5,23.5C 143.525,26.179 144.858,27.5123 147.5,27.5C 148.5,27.8333 149.167,28.5 149.5,29.5C 149.738,31.4044 150.738,32.7377 152.5,33.5C 152.213,37.2151 153.88,39.5485 157.5,40.5C 159.341,42.8485 160.674,45.5152 161.5,48.5C 161.446,51.9924 162.446,54.9924 164.5,57.5C 165.338,57.8417 165.672,58.5084 165.5,59.5C 165.686,64.8388 166.019,70.1721 166.5,75.5C 165.62,81.4752 164.953,87.4752 164.5,93.5C 160.783,98.9416 158.117,104.942 156.5,111.5C 156.5,111.833 156.5,112.167 156.5,112.5C 154.396,112.799 152.396,112.466 150.5,111.5C 151.309,109.929 151.643,108.262 151.5,106.5C 151.5,106.167 151.5,105.833 151.5,105.5C 152.458,105.047 153.292,104.381 154,103.5C 155.397,96.5484 155.73,89.5484 155,82.5C 154.722,81.5842 154.222,80.9175 153.5,80.5C 154.01,77.6122 153.344,75.2789 151.5,73.5C 151.5,72.8333 151.5,72.1667 151.5,71.5C 151.231,65.9355 148.898,61.6022 144.5,58.5C 143.127,55.1458 141.793,51.8125 140.5,48.5C 139.127,48.6567 137.793,48.49 136.5,48C 131.655,43.2471 125.989,40.0804 119.5,38.5C 119.5,38.1667 119.5,37.8333 119.5,37.5C 117.645,32.8805 117.312,28.2138 118.5,23.5C 120.048,23.1788 120.715,22.1788 120.5,20.5C 123.215,19.5492 126.049,18.8825 129,18.5C 132.719,18.4812 136.219,19.1478 139.5,20.5 Z"/></g>
<g><path style="opacity:0.992" fill="#d77655" d="M 188.5,25.5 C 188.5,25.8333 188.5,26.1667 188.5,26.5C 184.102,26.2941 179.768,26.6274 175.5,27.5C 175.5,27.1667 175.5,26.8333 175.5,26.5C 177.634,24.9666 180.134,24.2999 183,24.5C 185.033,24.5056 186.866,24.8389 188.5,25.5 Z"/></g>
<g><path style="opacity:0.969" fill="#e18a69" d="M 143.5,23.5 C 145.167,24.5 146.5,25.8333 147.5,27.5C 144.858,27.5123 143.525,26.179 143.5,23.5 Z"/></g>
<g><path style="opacity:0.998" fill="#e55b2d" d="M 188.5,26.5 C 189.391,27.1098 190.391,27.4431 191.5,27.5C 192.5,27.8333 193.167,28.5 193.5,29.5C 193.427,31.0269 194.094,32.0269 195.5,32.5C 196.363,34.4214 197.029,36.4214 197.5,38.5C 197.41,41.1522 198.076,43.4855 199.5,45.5C 199.5,45.8333 199.5,46.1667 199.5,46.5C 199.565,49.4282 200.232,52.0948 201.5,54.5C 202.324,65.742 201.157,76.742 198,87.5C 197.617,88.056 197.117,88.3893 196.5,88.5C 194.153,90.5274 192.819,93.194 192.5,96.5C 186.836,108.495 177.836,117.161 165.5,122.5C 163.833,122.5 162.167,122.5 160.5,122.5C 160.343,121.127 160.51,119.793 161,118.5C 162.417,117.922 163.25,116.922 163.5,115.5C 166.5,114.5 168.5,112.5 169.5,109.5C 171.017,109.489 172.184,108.823 173,107.5C 175.35,104.473 176.85,101.14 177.5,97.5C 177.5,97.1667 177.5,96.8333 177.5,96.5C 179.143,93.6864 180.643,90.6864 182,87.5C 182.667,79.5 182.667,71.5 182,63.5C 179.901,59.7686 178.734,55.7686 178.5,51.5C 177.5,51.5 176.5,51.5 175.5,51.5C 174.599,50.7095 173.932,49.7095 173.5,48.5C 173.715,46.8212 173.048,45.8212 171.5,45.5C 171.5,45.1667 171.5,44.8333 171.5,44.5C 170.259,39.8433 170.259,35.1767 171.5,30.5C 171.5,29.8333 171.833,29.5 172.5,29.5C 173.5,28.8333 174.5,28.1667 175.5,27.5C 179.768,26.6274 184.102,26.2941 188.5,26.5 Z"/></g>
<g><path style="opacity:0.09" fill="#fddccb" d="M 188.5,26.5 C 188.5,26.1667 188.5,25.8333 188.5,25.5C 190.027,25.427 191.027,26.0937 191.5,27.5C 190.391,27.4431 189.391,27.1098 188.5,26.5 Z"/></g>
<g><path style="opacity:1" fill="#d8876c" d="M 119.5,20.5 C 118.89,21.391 118.557,22.391 118.5,23.5C 117.312,28.2138 117.645,32.8805 119.5,37.5C 118.624,37.6309 117.957,37.2975 117.5,36.5C 115.017,31.927 114.85,27.2603 117,22.5C 117.417,21.244 118.25,20.5774 119.5,20.5 Z"/></g>
<g><path style="opacity:0.827" fill="#f4c9bb" d="M 175.5,26.5 C 175.5,26.8333 175.5,27.1667 175.5,27.5C 174.5,28.1667 173.5,28.8333 172.5,29.5C 172.5,27.5 173.5,26.5 175.5,26.5 Z"/></g>
<g><path style="opacity:0.8" fill="#f9c5a8" d="M 149.5,29.5 C 151.262,30.2623 152.262,31.5956 152.5,33.5C 150.738,32.7377 149.738,31.4044 149.5,29.5 Z"/></g>
<g><path style="opacity:0.227" fill="#fedbca" d="M 193.5,29.5 C 194.906,29.9731 195.573,30.9731 195.5,32.5C 194.094,32.0269 193.427,31.0269 193.5,29.5 Z"/></g>
<g><path style="opacity:0.984" fill="#f1b7a2" d="M 87.5,36.5 C 81.7969,36.3748 76.1302,36.7081 70.5,37.5C 73.017,35.9469 75.8503,34.9469 79,34.5C 81.9956,35.0354 84.8289,35.7021 87.5,36.5 Z"/></g>
<g><path style="opacity:0.984" fill="#e78462" d="M 152.5,33.5 C 154.9,35.2964 156.567,37.6298 157.5,40.5C 153.88,39.5485 152.213,37.2151 152.5,33.5 Z"/></g>
<g><path style="opacity:0.998" fill="#e55a2c" d="M 87.5,36.5 C 87.8333,36.5 88.1667,36.5 88.5,36.5C 93.7821,39.5362 99.2821,42.2029 105,44.5C 105.383,43.944 105.883,43.6107 106.5,43.5C 106.414,44.4959 106.748,45.3292 107.5,46C 111.974,48.9311 116.641,51.4311 121.5,53.5C 133.293,63.7372 140.46,76.7372 143,92.5C 143.499,98.1569 143.666,103.824 143.5,109.5C 141.449,112.147 139.449,112.147 137.5,109.5C 137.331,104.819 136.998,100.152 136.5,95.5C 135.5,95.5 134.5,95.5 133.5,95.5C 133.5,95.1667 133.5,94.8333 133.5,94.5C 133.201,90.8945 132.035,87.5612 130,84.5C 129.329,83.7476 128.496,83.4142 127.5,83.5C 126.167,82.1667 124.833,80.8333 123.5,79.5C 123.512,76.858 122.179,75.5246 119.5,75.5C 118.167,74.8333 117.167,73.8333 116.5,72.5C 115.856,69.1956 113.856,67.8622 110.5,68.5C 108.599,66.2043 106.266,64.371 103.5,63C 94.7329,60.8616 85.7329,59.8616 76.5,60C 73.7206,59.439 71.054,58.6056 68.5,57.5C 66.684,53.7159 65.684,49.7159 65.5,45.5C 66.9823,43.1093 68.6489,40.7759 70.5,38.5C 70.5,38.1667 70.5,37.8333 70.5,37.5C 76.1302,36.7081 81.7969,36.3748 87.5,36.5 Z"/></g>
<g><path style="opacity:0.992" fill="#da7855" d="M 119.5,38.5 C 125.989,40.0804 131.655,43.2471 136.5,48C 137.793,48.49 139.127,48.6567 140.5,48.5C 141.793,51.8125 143.127,55.1458 144.5,58.5C 141.398,54.8955 138.065,51.3955 134.5,48C 129.326,44.9703 124.326,41.8036 119.5,38.5 Z"/></g>
<g><path style="opacity:1" fill="#e48d6e" d="M 88.5,36.5 C 93.5713,37.6898 98.5713,39.1898 103.5,41C 104.942,41.3768 105.942,42.2101 106.5,43.5C 105.883,43.6107 105.383,43.944 105,44.5C 99.2821,42.2029 93.7821,39.5362 88.5,36.5 Z"/></g>
<g><path style="opacity:0.502" fill="#e4a894" d="M 171.5,30.5 C 170.259,35.1767 170.259,39.8433 171.5,44.5C 169.983,42.5379 169.316,40.2046 169.5,37.5C 169.316,34.7954 169.983,32.4621 171.5,30.5 Z"/></g>
<g><path style="opacity:0.929" fill="#f8bb9e" d="M 197.5,38.5 C 198.924,40.5145 199.59,42.8478 199.5,45.5C 198.076,43.4855 197.41,41.1522 197.5,38.5 Z"/></g>
<g><path style="opacity:0.976" fill="#dd9b83" d="M 70.5,38.5 C 68.6489,40.7759 66.9823,43.1093 65.5,45.5C 65.4754,41.8602 67.142,39.5269 70.5,38.5 Z"/></g>
<g><path style="opacity:0.784" fill="#e2b6a8" d="M 171.5,45.5 C 173.048,45.8212 173.715,46.8212 173.5,48.5C 172.599,47.7095 171.932,46.7095 171.5,45.5 Z"/></g>
<g><path style="opacity:1" fill="#e2825f" d="M 106.5,43.5 C 112.565,45.2307 117.565,48.5641 121.5,53.5C 116.641,51.4311 111.974,48.9311 107.5,46C 106.748,45.3292 106.414,44.4959 106.5,43.5 Z"/></g>
<g><path style="opacity:1" fill="#042141" d="M 496.5,50.5 C 497.99,52.2798 499.99,52.9465 502.5,52.5C 506.933,53.2145 510.6,55.2145 513.5,58.5C 515.167,60.8333 517.167,62.8333 519.5,64.5C 520.5,64.8333 521.167,65.5 521.5,66.5C 521.427,68.0269 522.094,69.0269 523.5,69.5C 524.338,69.8417 524.672,70.5084 524.5,71.5C 524.427,73.0269 525.094,74.0269 526.5,74.5C 532.01,86.8735 535.177,99.8735 536,113.5C 537.237,132.659 536.404,151.659 533.5,170.5C 532.778,170.918 532.278,171.584 532,172.5C 530.16,171.167 529.66,171.334 530.5,173C 529.833,173.333 529.167,173.667 528.5,174C 529.624,174.839 530.291,176.006 530.5,177.5C 529.584,181.611 527.918,185.278 525.5,188.5C 526.127,189.417 526.461,190.417 526.5,191.5C 526.598,193.553 525.931,195.22 524.5,196.5C 523.833,196.833 523.167,197.167 522.5,197.5C 522.565,197.062 522.399,196.728 522,196.5C 518.592,202.223 513.592,206.89 507,210.5C 506.228,210.355 505.561,210.022 505,209.5C 503.623,211.592 501.79,213.258 499.5,214.5C 498.914,214.291 498.414,213.957 498,213.5C 496.601,214.227 495.101,214.727 493.5,215C 492.402,215.77 492.402,216.603 493.5,217.5C 484.137,218.809 474.803,218.809 465.5,217.5C 463.485,216.076 461.152,215.41 458.5,215.5C 453.404,214.454 449.071,212.121 445.5,208.5C 445.027,207.094 444.027,206.427 442.5,206.5C 431.185,193.091 425.019,177.424 424,159.5C 423.749,150.48 423.249,141.48 422.5,132.5C 422.531,116.617 424.364,100.95 428,85.5C 430.376,77.0726 434.543,69.7393 440.5,63.5C 443.764,61.9059 446.431,59.5725 448.5,56.5C 454.699,52.153 461.699,49.653 469.5,49C 478.634,48.073 487.634,48.573 496.5,50.5 Z M 494.5,82.5 C 497.302,87.0763 498.802,92.0763 499,97.5C 499.935,123.865 499.601,150.198 498,176.5C 496.573,182.925 492.74,187.092 486.5,189C 482.179,189.499 477.846,189.666 473.5,189.5C 473.167,189.5 472.833,189.5 472.5,189.5C 469.926,188.119 467.426,186.452 465,184.5C 463.454,181.408 461.954,178.408 460.5,175.5C 460.81,172.287 460.477,169.287 459.5,166.5C 459.249,142.151 459.582,117.818 460.5,93.5C 463.499,80.0358 471.832,74.8691 485.5,78C 489.075,78.4542 492.075,79.9542 494.5,82.5 Z"/></g>
<g><path style="opacity:1" fill="#032140" d="M 769.5,59.5 C 769.5,61.5 770.5,62.5 772.5,62.5C 772.427,64.0269 773.094,65.0269 774.5,65.5C 776.822,66.8021 778.155,68.8021 778.5,71.5C 776.566,74.2716 777.233,76.1049 780.5,77C 779.802,77.9707 779.802,79.1374 780.5,80.5C 780.167,81.1667 779.833,81.8333 779.5,82.5C 778.604,81.4937 777.938,81.4937 777.5,82.5C 779.078,83.2978 780.744,83.7978 782.5,84C 781.5,84.3333 780.5,84.6667 779.5,85C 780.872,85.4017 782.205,85.9017 783.5,86.5C 784.518,88.5939 785.518,90.5939 786.5,92.5C 788.762,99.5115 789.929,106.845 790,114.5C 790.78,128.199 790.613,141.866 789.5,155.5C 788.946,158.901 787.613,162.068 785.5,165C 785.653,166.561 785.986,168.395 786.5,170.5C 785.033,174.032 784.366,177.698 784.5,181.5C 784.768,183.099 784.434,184.432 783.5,185.5C 782.603,186.598 781.77,186.598 781,185.5C 780.995,188.229 779.829,190.229 777.5,191.5C 777.833,192.167 778.167,192.833 778.5,193.5C 776.896,195.179 776.229,197.179 776.5,199.5C 775.448,199.351 774.448,199.517 773.5,200C 772.667,201.5 771.5,202.667 770,203.5C 769.667,202.833 769.333,202.167 769,201.5C 768.798,203.256 768.298,204.922 767.5,206.5C 760.617,210.811 753.617,213.978 746.5,216C 747.416,216.278 748.082,216.778 748.5,217.5C 738.722,219.945 729.055,219.945 719.5,217.5C 716.495,215.723 713.162,214.723 709.5,214.5C 703.248,212.541 698.248,208.874 694.5,203.5C 695.075,201.658 694.909,199.658 694,197.5C 691.845,194.013 689.511,190.68 687,187.5C 686.257,185.559 686.424,183.726 687.5,182C 685.819,180.055 685.152,178.055 685.5,176C 682.813,171.936 680.979,167.436 680,162.5C 678.748,146.525 678.248,130.525 678.5,114.5C 678.531,107.285 680.364,100.619 684,94.5C 685.759,87.0074 687.759,79.6741 690,72.5C 691.441,71.13 693.108,70.13 695,69.5C 696.19,65.8077 698.357,62.8077 701.5,60.5C 702.167,60.8333 702.833,61.1667 703.5,61.5C 703.975,59.8944 705.309,58.3944 707.5,57C 708.448,56.5172 709.448,56.3505 710.5,56.5C 710.281,55.325 710.614,54.325 711.5,53.5C 714.238,53.1125 716.572,52.1125 718.5,50.5C 732.272,47.3242 745.939,48.1575 759.5,53C 763.069,54.9417 766.402,57.1084 769.5,59.5 Z M 752.5,89.5 C 752.704,92.5176 753.037,95.5176 753.5,98.5C 753.955,124.876 753.455,151.21 752,177.5C 749.08,185.866 743.246,190.2 734.5,190.5C 733.833,190.5 733.167,190.5 732.5,190.5C 728.353,189.621 724.353,188.121 720.5,186C 718.079,182.649 716.079,179.149 714.5,175.5C 713.4,149.848 713.234,124.181 714,98.5C 714.867,81.4749 723.7,74.6415 740.5,78C 746.325,79.9925 750.325,83.8259 752.5,89.5 Z"/></g>
<g><path style="opacity:0.984" fill="#eeb6a1" d="M 65.5,45.5 C 65.684,49.7159 66.684,53.7159 68.5,57.5C 64.7365,54.1118 63.7365,50.1118 65.5,45.5 Z"/></g>
<g><path style="opacity:0.984" fill="#59697f" d="M 496.5,50.5 C 498.786,50.595 500.786,51.2616 502.5,52.5C 499.99,52.9465 497.99,52.2798 496.5,50.5 Z"/></g>
<g><path style="opacity:0.09" fill="#fcc6ad" d="M 199.5,46.5 C 201.04,48.8383 201.706,51.5049 201.5,54.5C 200.232,52.0948 199.565,49.4282 199.5,46.5 Z"/></g>
<g><path style="opacity:1" fill="#062242" d="M 407.5,215.5 C 407.167,215.5 406.833,215.5 406.5,215.5C 374.336,214.668 342.003,214.168 309.5,214C 308.607,205.682 308.607,197.516 309.5,189.5C 320.962,188.853 332.295,188.187 343.5,187.5C 343.833,152.16 343.5,116.827 342.5,81.5C 341.893,81.6236 341.56,81.9569 341.5,82.5C 339.856,82.7135 338.356,82.3802 337,81.5C 336.667,82.5 336.333,83.5 336,84.5C 335.667,84.1667 335.333,83.8333 335,83.5C 331.113,86.8629 326.946,89.8629 322.5,92.5C 321.914,92.2907 321.414,91.9574 321,91.5C 320.316,93.359 319.316,95.0257 318,96.5C 315.909,95.5004 314.243,96.1671 313,98.5C 310.053,96.2179 308.387,93.2179 308,89.5C 306.334,90.3402 306.167,89.8402 307.5,88C 305.593,86.878 303.593,86.0447 301.5,85.5C 302.067,83.9705 302.733,82.4705 303.5,81C 302.376,80.7508 301.376,80.2508 300.5,79.5C 301.391,78.4104 302.391,78.4104 303.5,79.5C 304.415,77.0197 305.915,76.3531 308,77.5C 308.44,75.9238 309.273,74.5904 310.5,73.5C 313.7,72.4688 316.533,70.8021 319,68.5C 319.333,69.1667 319.667,69.8333 320,70.5C 320.304,68.5595 321.137,66.8928 322.5,65.5C 325.728,64.424 328.562,62.7574 331,60.5C 331.333,60.8333 331.667,61.1667 332,61.5C 332.579,60.0715 332.412,58.7382 331.5,57.5C 333.647,55.5305 335.98,53.6971 338.5,52C 349.347,51.7257 360.18,51.2257 371,50.5C 372.764,50.5445 374.431,50.8778 376,51.5C 376.828,96.5412 376.661,141.541 375.5,186.5C 386.48,187.499 397.48,187.832 408.5,187.5C 407.66,197.123 407.326,206.456 407.5,215.5 Z"/></g>
<g><path style="opacity:0.995" fill="#1e3048" d="M 593.5,52.5 C 594.5,52.5 595.5,52.5 596.5,52.5C 597.739,53.212 598.239,54.212 598,55.5C 595.124,54.6106 592.624,55.4439 590.5,58C 590.833,58.3333 591.167,58.6667 591.5,59C 589.598,59.1992 588.098,60.0325 587,61.5C 585.434,60.9394 584.101,61.6061 583,63.5C 580.853,62.5243 578.686,62.691 576.5,64C 574.88,66.6822 573.046,69.1822 571,71.5C 569.301,70.5939 567.467,70.2606 565.5,70.5C 574.485,64.0043 583.819,58.0043 593.5,52.5 Z"/></g>
<g><path style="opacity:1" fill="#001f3e" d="M 596.5,52.5 C 606.5,52.5 616.5,52.5 626.5,52.5C 628.048,53.6286 628.714,55.7953 628.5,59C 628.692,101.423 628.358,143.423 627.5,185C 628.147,186.609 628.98,188.109 630,189.5C 640.09,188.348 650.256,188.181 660.5,189C 660.5,197.333 660.5,205.667 660.5,214C 627.835,214.5 595.168,214.667 562.5,214.5C 562.5,205.833 562.5,197.167 562.5,188.5C 574.551,188.187 586.551,188.521 598.5,189.5C 599.192,188.975 599.692,188.308 600,187.5C 600.667,152.167 600.667,116.833 600,81.5C 597.661,79.9221 595.828,80.2554 594.5,82.5C 592.562,81.5388 591.062,82.2054 590,84.5C 589.667,84.1667 589.333,83.8333 589,83.5C 588.517,84.448 588.351,85.448 588.5,86.5C 585.986,86.7539 583.652,87.5873 581.5,89C 577.145,92.6971 572.311,95.5305 567,97.5C 565.275,96.536 563.441,95.8693 561.5,95.5C 561.414,94.5041 561.748,93.6708 562.5,93C 559.328,89.8883 557.328,86.5549 556.5,83C 553.767,81.7719 553.1,79.9386 554.5,77.5C 557.65,74.4208 561.317,72.0875 565.5,70.5C 567.467,70.2606 569.301,70.5939 571,71.5C 573.046,69.1822 574.88,66.6822 576.5,64C 578.686,62.691 580.853,62.5243 583,63.5C 584.101,61.6061 585.434,60.9394 587,61.5C 588.098,60.0325 589.598,59.1992 591.5,59C 591.167,58.6667 590.833,58.3333 590.5,58C 592.624,55.4439 595.124,54.6106 598,55.5C 598.239,54.212 597.739,53.212 596.5,52.5 Z"/></g>
<g><path style="opacity:0.986" fill="#061f3a" d="M 593.5,52.5 C 605.655,51.5048 617.989,51.1714 630.5,51.5C 629.354,96.4777 629.187,141.478 630,186.5C 640.666,187.448 651.166,187.781 661.5,187.5C 661.5,196.833 661.5,206.167 661.5,215.5C 627.833,215.5 594.167,215.5 560.5,215.5C 560.5,206.167 560.5,196.833 560.5,187.5C 572.5,187.5 584.5,187.5 596.5,187.5C 597.833,152.5 597.833,117.5 596.5,82.5C 596.167,82.5 595.833,82.5 595.5,82.5C 595.167,82.5 594.833,82.5 594.5,82.5C 595.828,80.2554 597.661,79.9221 600,81.5C 600.667,116.833 600.667,152.167 600,187.5C 599.692,188.308 599.192,188.975 598.5,189.5C 586.551,188.521 574.551,188.187 562.5,188.5C 562.5,197.167 562.5,205.833 562.5,214.5C 595.168,214.667 627.835,214.5 660.5,214C 660.5,205.667 660.5,197.333 660.5,189C 650.256,188.181 640.09,188.348 630,189.5C 628.98,188.109 628.147,186.609 627.5,185C 628.358,143.423 628.692,101.423 628.5,59C 628.714,55.7953 628.048,53.6286 626.5,52.5C 616.5,52.5 606.5,52.5 596.5,52.5C 595.5,52.5 594.5,52.5 593.5,52.5 Z"/></g>
<g><path style="opacity:0.984" fill="#de7653" d="M 161.5,48.5 C 163.472,51.0836 164.472,54.0836 164.5,57.5C 162.446,54.9924 161.446,51.9924 161.5,48.5 Z"/></g>
<g><path style="opacity:0.953" fill="#da896b" d="M 144.5,58.5 C 148.898,61.6022 151.231,65.9355 151.5,71.5C 149.452,67.0738 147.118,62.7405 144.5,58.5 Z"/></g>
<g><path style="opacity:0.004" fill="#c2cbd6" d="M 513.5,58.5 C 516.5,59.5 518.5,61.5 519.5,64.5C 517.167,62.8333 515.167,60.8333 513.5,58.5 Z"/></g>
<g><path style="opacity:1" fill="#546271" d="M 448.5,56.5 C 446.431,59.5725 443.764,61.9059 440.5,63.5C 442.569,60.4275 445.236,58.0941 448.5,56.5 Z"/></g>
<g><path style="opacity:1" fill="#de947b" d="M 230.5,59.5 C 227.482,59.3354 224.482,59.502 221.5,60C 219.713,61.3187 217.713,62.152 215.5,62.5C 216.453,60.39 218.119,59.2233 220.5,59C 224.027,58.1925 227.36,58.3592 230.5,59.5 Z"/></g>
<g><path style="opacity:0.997" fill="#e5592c" d="M 230.5,59.5 C 232.404,59.7376 233.738,60.7376 234.5,62.5C 236.38,69.2605 237.047,76.2605 236.5,83.5C 236.606,86.0786 235.939,88.412 234.5,90.5C 231.846,92.8343 230.512,95.8343 230.5,99.5C 225.349,110.987 217.349,119.987 206.5,126.5C 203.5,127.167 200.5,127.833 197.5,128.5C 197.5,129.5 197.5,130.5 197.5,131.5C 197.167,131.5 196.833,131.5 196.5,131.5C 192.175,131.349 188.509,132.682 185.5,135.5C 184.833,135.5 184.167,135.5 183.5,135.5C 176.833,135.5 170.167,135.5 163.5,135.5C 163.5,134.167 163.5,132.833 163.5,131.5C 165.5,130.833 167.5,130.167 169.5,129.5C 171.262,129.357 172.929,129.691 174.5,130.5C 176.565,129.143 178.565,127.81 180.5,126.5C 180.842,125.662 181.508,125.328 182.5,125.5C 185.85,125.494 188.85,124.494 191.5,122.5C 195.519,118.315 199.353,113.982 203,109.5C 204.559,107.783 205.392,105.783 205.5,103.5C 207.193,102.525 208.693,101.192 210,99.5C 211.147,94.5343 211.98,89.5343 212.5,84.5C 212.347,78.1308 212.68,71.7974 213.5,65.5C 214.906,65.0269 215.573,64.0269 215.5,62.5C 217.713,62.152 219.713,61.3187 221.5,60C 224.482,59.502 227.482,59.3354 230.5,59.5 Z"/></g>
<g><path style="opacity:0.757" fill="#a9b4c1" d="M 769.5,59.5 C 770.833,60.1667 771.833,61.1667 772.5,62.5C 770.5,62.5 769.5,61.5 769.5,59.5 Z"/></g>
<g><path style="opacity:1" fill="#d87452" d="M 68.5,57.5 C 71.054,58.6056 73.7206,59.439 76.5,60C 85.7329,59.8616 94.7329,60.8616 103.5,63C 106.266,64.371 108.599,66.2043 110.5,68.5C 98.4789,63.1656 85.8123,60.6656 72.5,61C 70.6763,60.34 69.343,59.1733 68.5,57.5 Z"/></g>
<g><path style="opacity:0.467" fill="#ebbdac" d="M 215.5,62.5 C 215.573,64.0269 214.906,65.0269 213.5,65.5C 213.427,63.9731 214.094,62.9731 215.5,62.5 Z"/></g>
<g><path style="opacity:0.996" fill="#27364c" d="M 718.5,50.5 C 716.572,52.1125 714.238,53.1125 711.5,53.5C 710.614,54.325 710.281,55.325 710.5,56.5C 709.448,56.3505 708.448,56.5172 707.5,57C 705.309,58.3944 703.975,59.8944 703.5,61.5C 702.833,61.1667 702.167,60.8333 701.5,60.5C 698.357,62.8077 696.19,65.8077 695,69.5C 693.108,70.13 691.441,71.13 690,72.5C 687.759,79.6741 685.759,87.0074 684,94.5C 680.364,100.619 678.531,107.285 678.5,114.5C 678.167,114.5 677.833,114.5 677.5,114.5C 677.691,98.0283 681.857,82.695 690,68.5C 696.787,58.2141 706.287,52.2141 718.5,50.5 Z"/></g>
<g><path style="opacity:0.451" fill="#acbaca" d="M 772.5,62.5 C 773.906,62.9731 774.573,63.9731 774.5,65.5C 773.094,65.0269 772.427,64.0269 772.5,62.5 Z"/></g>
<g><path style="opacity:0.192" fill="#acbcce" d="M 521.5,66.5 C 522.906,66.9731 523.573,67.9731 523.5,69.5C 522.094,69.0269 521.427,68.0269 521.5,66.5 Z"/></g>
<g><path style="opacity:1" fill="#e1896b" d="M 110.5,68.5 C 113.856,67.8622 115.856,69.1956 116.5,72.5C 114.147,71.6597 112.147,70.3264 110.5,68.5 Z"/></g>
<g><path style="opacity:0.995" fill="#ec9a7b" d="M 234.5,62.5 C 236.173,63.343 237.34,64.6763 238,66.5C 238.868,72.4227 238.368,78.0894 236.5,83.5C 237.047,76.2605 236.38,69.2605 234.5,62.5 Z"/></g>
<g><path style="opacity:0.406" fill="#ed9474" d="M 165.5,59.5 C 166.965,64.59 167.632,69.9233 167.5,75.5C 167.897,81.8702 166.897,87.8702 164.5,93.5C 164.953,87.4752 165.62,81.4752 166.5,75.5C 166.019,70.1721 165.686,64.8388 165.5,59.5 Z"/></g>
<g><path style="opacity:0.99" fill="#d88468" d="M 83.5,73.5 C 74.1667,73.5 64.8333,73.5 55.5,73.5C 64.8419,70.9979 74.1753,70.9979 83.5,73.5 Z"/></g>
<g><path style="opacity:0.773" fill="#e9a791" d="M 213.5,65.5 C 212.68,71.7974 212.347,78.1308 212.5,84.5C 212.167,84.5 211.833,84.5 211.5,84.5C 211.334,79.1563 211.501,73.8229 212,68.5C 212.232,67.2625 212.732,66.2625 213.5,65.5 Z"/></g>
<g><path style="opacity:0.995" fill="#20324b" d="M 331.5,57.5 C 332.412,58.7382 332.579,60.0715 332,61.5C 331.667,61.1667 331.333,60.8333 331,60.5C 328.562,62.7574 325.728,64.424 322.5,65.5C 321.137,66.8928 320.304,68.5595 320,70.5C 319.667,69.8333 319.333,69.1667 319,68.5C 316.533,70.8021 313.7,72.4688 310.5,73.5C 309.273,74.5904 308.44,75.9238 308,77.5C 305.915,76.3531 304.415,77.0197 303.5,79.5C 302.391,78.4104 301.391,78.4104 300.5,79.5C 301.376,80.2508 302.376,80.7508 303.5,81C 302.733,82.4705 302.067,83.9705 301.5,85.5C 300.094,85.0269 299.427,84.0269 299.5,82.5C 298.438,80.7659 298.438,79.0992 299.5,77.5C 309.822,70.3359 320.489,63.6692 331.5,57.5 Z"/></g>
<g><path style="opacity:0.106" fill="#b2c3d4" d="M 524.5,71.5 C 525.906,71.9731 526.573,72.9731 526.5,74.5C 525.094,74.0269 524.427,73.0269 524.5,71.5 Z"/></g>
<g><path style="opacity:0.969" fill="#eeb29b" d="M 55.5,73.5 C 52.0935,75.0743 48.4268,76.0743 44.5,76.5C 47.7994,74.5165 51.4661,73.5165 55.5,73.5 Z"/></g>
<g><path style="opacity:0.997" fill="#e4582b" d="M 55.5,73.5 C 64.8333,73.5 74.1667,73.5 83.5,73.5C 84.1667,73.5 84.8333,73.5 85.5,73.5C 86.9179,75.3079 88.9179,75.9746 91.5,75.5C 91.8333,75.5 92.1667,75.5 92.5,75.5C 96.3498,79.9305 101.35,82.5972 107.5,83.5C 109.754,84.4151 111.754,85.7484 113.5,87.5C 113.525,90.179 114.858,91.5123 117.5,91.5C 117.738,93.4044 118.738,94.7377 120.5,95.5C 124.662,99.0013 127.662,103.335 129.5,108.5C 129.5,110.167 129.5,111.833 129.5,113.5C 125.914,113.544 123.581,111.877 122.5,108.5C 121.583,107.873 120.583,107.539 119.5,107.5C 118.493,104.642 116.827,102.142 114.5,100C 113.207,99.51 111.873,99.3433 110.5,99.5C 103.54,95.9578 96.2071,93.6244 88.5,92.5C 81.9932,91.3133 75.3265,91.3133 68.5,92.5C 61.4362,94.6568 54.7695,97.6568 48.5,101.5C 44.1818,102.54 39.8485,102.54 35.5,101.5C 35.5,101.167 35.5,100.833 35.5,100.5C 34.2485,98.9991 33.2485,97.3325 32.5,95.5C 32.3354,92.4816 32.502,89.4816 33,86.5C 36.4351,82.5549 40.2685,79.2216 44.5,76.5C 48.4268,76.0743 52.0935,75.0743 55.5,73.5 Z"/></g>
<g><path style="opacity:0.976" fill="#e39f83" d="M 85.5,73.5 C 87.7857,73.595 89.7857,74.2616 91.5,75.5C 88.9179,75.9746 86.9179,75.3079 85.5,73.5 Z"/></g>
<g><path style="opacity:0.984" fill="#dea38c" d="M 151.5,73.5 C 153.344,75.2789 154.01,77.6122 153.5,80.5C 152.593,78.3432 151.927,76.0098 151.5,73.5 Z"/></g>
<g><path style="opacity:1" fill="#e0977f" d="M 119.5,75.5 C 122.179,75.5246 123.512,76.858 123.5,79.5C 121.833,78.5 120.5,77.1667 119.5,75.5 Z"/></g>
<g><path style="opacity:0.561" fill="#bdc3cb" d="M 299.5,77.5 C 298.438,79.0992 298.438,80.7659 299.5,82.5C 296.952,80.7044 296.952,79.0378 299.5,77.5 Z"/></g>
<g><path style="opacity:0.984" fill="#324764" d="M 778.5,71.5 C 783.071,77.6646 785.738,84.6646 786.5,92.5C 785.518,90.5939 784.518,88.5939 783.5,86.5C 782.205,85.9017 780.872,85.4017 779.5,85C 780.5,84.6667 781.5,84.3333 782.5,84C 780.744,83.7978 779.078,83.2978 777.5,82.5C 777.938,81.4937 778.604,81.4937 779.5,82.5C 779.833,81.8333 780.167,81.1667 780.5,80.5C 779.802,79.1374 779.802,77.9707 780.5,77C 777.233,76.1049 776.566,74.2716 778.5,71.5 Z"/></g>
<g><path style="opacity:0.988" fill="#e38664" d="M 92.5,75.5 C 98.1924,77.0494 103.192,79.7161 107.5,83.5C 101.35,82.5972 96.3498,79.9305 92.5,75.5 Z"/></g>
<g><path style="opacity:0.906" fill="#f1bfaa" d="M 37.5,79.5 C 36.1667,81.5 34.5,83.1667 32.5,84.5C 33.1667,81.8333 34.8333,80.1667 37.5,79.5 Z"/></g>
<g><path style="opacity:1" fill="#de805f" d="M 44.5,76.5 C 40.2685,79.2216 36.4351,82.5549 33,86.5C 32.502,89.4816 32.3354,92.4816 32.5,95.5C 32.1667,95.5 31.8333,95.5 31.5,95.5C 30.0976,91.7104 30.4309,88.0437 32.5,84.5C 34.5,83.1667 36.1667,81.5 37.5,79.5C 39.5093,77.9348 41.8427,76.9348 44.5,76.5 Z"/></g>
<g><path style="opacity:0.785" fill="#575f67" d="M 341.5,82.5 C 341.56,81.9569 341.893,81.6236 342.5,81.5C 343.5,116.827 343.833,152.16 343.5,187.5C 342.833,187.5 342.167,187.5 341.5,187.5C 342.182,152.419 342.182,117.419 341.5,82.5 Z"/></g>
<g><path style="opacity:0.984" fill="#515b6a" d="M 554.5,77.5 C 553.1,79.9386 553.767,81.7719 556.5,83C 557.328,86.5549 559.328,89.8883 562.5,93C 561.748,93.6708 561.414,94.5041 561.5,95.5C 557.832,90.4726 554.499,85.1393 551.5,79.5C 552.005,78.0815 553.005,77.4148 554.5,77.5 Z"/></g>
<g><path style="opacity:0.911" fill="#91969b" d="M 596.5,82.5 C 597.833,117.5 597.833,152.5 596.5,187.5C 595.338,152.246 595.338,117.246 596.5,82.5 Z"/></g>
<g><path style="opacity:0.98" fill="#d88264" d="M 175.5,51.5 C 176.5,51.5 177.5,51.5 178.5,51.5C 178.734,55.7686 179.901,59.7686 182,63.5C 182.667,71.5 182.667,79.5 182,87.5C 180.643,90.6864 179.143,93.6864 177.5,96.5C 183.224,81.1606 182.558,66.1606 175.5,51.5 Z"/></g>
<g><path style="opacity:0.467" fill="#db8e72" d="M 127.5,83.5 C 128.496,83.4142 129.329,83.7476 130,84.5C 132.035,87.5612 133.201,90.8945 133.5,94.5C 131.57,90.8751 129.57,87.2084 127.5,83.5 Z"/></g>
<g><path style="opacity:1" fill="#e48559" d="M 196.5,88.5 C 196.206,91.7541 194.873,94.4208 192.5,96.5C 192.819,93.194 194.153,90.5274 196.5,88.5 Z"/></g>
<g><path style="opacity:1" fill="#ea9f85" d="M 113.5,87.5 C 115.167,88.5 116.5,89.8333 117.5,91.5C 114.858,91.5123 113.525,90.179 113.5,87.5 Z"/></g>
<g><path style="opacity:0.561" fill="#ecb9a7" d="M 117.5,91.5 C 119.262,92.2623 120.262,93.5956 120.5,95.5C 118.738,94.7377 117.738,93.4044 117.5,91.5 Z"/></g>
<g><path style="opacity:0.998" fill="#31425c" d="M 594.5,82.5 C 594.833,82.5 595.167,82.5 595.5,82.5C 585.91,89.6394 575.91,96.3061 565.5,102.5C 563.89,100.275 562.557,97.9413 561.5,95.5C 563.441,95.8693 565.275,96.536 567,97.5C 572.311,95.5305 577.145,92.6971 581.5,89C 583.652,87.5873 585.986,86.7539 588.5,86.5C 588.351,85.448 588.517,84.448 589,83.5C 589.333,83.8333 589.667,84.1667 590,84.5C 591.062,82.2054 592.562,81.5388 594.5,82.5 Z"/></g>
<g><path style="opacity:0.995" fill="#2e3f58" d="M 341.5,82.5 C 331.565,89.1433 321.565,95.81 311.5,102.5C 307.402,97.3074 304.069,91.6408 301.5,85.5C 303.593,86.0447 305.593,86.878 307.5,88C 306.167,89.8402 306.334,90.3402 308,89.5C 308.387,93.2179 310.053,96.2179 313,98.5C 314.243,96.1671 315.909,95.5004 318,96.5C 319.316,95.0257 320.316,93.359 321,91.5C 321.414,91.9574 321.914,92.2907 322.5,92.5C 326.946,89.8629 331.113,86.8629 335,83.5C 335.333,83.8333 335.667,84.1667 336,84.5C 336.333,83.5 336.667,82.5 337,81.5C 338.356,82.3802 339.856,82.7135 341.5,82.5 Z"/></g>
<g><path style="opacity:0.992" fill="#e78868" d="M 234.5,90.5 C 233.925,93.9116 232.592,96.9116 230.5,99.5C 230.512,95.8343 231.846,92.8343 234.5,90.5 Z"/></g>
<g><path style="opacity:0.388" fill="#f6cabb" d="M 31.5,95.5 C 31.8333,95.5 32.1667,95.5 32.5,95.5C 33.2485,97.3325 34.2485,98.9991 35.5,100.5C 33.0029,99.8707 31.6696,98.204 31.5,95.5 Z"/></g>
<g><path style="opacity:0.992" fill="#d97e5f" d="M 211.5,84.5 C 211.833,84.5 212.167,84.5 212.5,84.5C 211.98,89.5343 211.147,94.5343 210,99.5C 208.693,101.192 207.193,102.525 205.5,103.5C 208.291,97.3115 210.291,90.9781 211.5,84.5 Z"/></g>
<g><path style="opacity:1" fill="#dd7c5c" d="M 88.5,92.5 C 81.7695,92.2264 75.1028,92.7264 68.5,94C 61.279,96.8924 54.279,100.226 47.5,104C 43.0268,104.962 39.0268,104.129 35.5,101.5C 39.8485,102.54 44.1818,102.54 48.5,101.5C 54.7695,97.6568 61.4362,94.6568 68.5,92.5C 75.3265,91.3133 81.9932,91.3133 88.5,92.5 Z"/></g>
<g><path style="opacity:0.992" fill="#d07e64" d="M 153.5,80.5 C 154.222,80.9175 154.722,81.5842 155,82.5C 155.73,89.5484 155.397,96.5484 154,103.5C 153.292,104.381 152.458,105.047 151.5,105.5C 154.452,97.3555 155.119,89.0222 153.5,80.5 Z"/></g>
<g><path style="opacity:0.992" fill="#d97858" d="M 110.5,99.5 C 111.873,99.3433 113.207,99.51 114.5,100C 116.827,102.142 118.493,104.642 119.5,107.5C 116.474,104.805 113.474,102.138 110.5,99.5 Z"/></g>
<g><path style="opacity:1" fill="#e5835d" d="M 164.5,93.5 C 164.477,95.9267 163.977,98.26 163,100.5C 161.324,104.527 159.158,108.194 156.5,111.5C 158.117,104.942 160.783,98.9416 164.5,93.5 Z"/></g>
<g><path style="opacity:0.922" fill="#d7886d" d="M 177.5,97.5 C 176.85,101.14 175.35,104.473 173,107.5C 172.184,108.823 171.017,109.489 169.5,109.5C 172.623,105.728 175.289,101.728 177.5,97.5 Z"/></g>
<g><path style="opacity:1" fill="#3b475b" d="M 473.5,189.5 C 477.846,189.666 482.179,189.499 486.5,189C 492.74,187.092 496.573,182.925 498,176.5C 499.601,150.198 499.935,123.865 499,97.5C 498.802,92.0763 497.302,87.0763 494.5,82.5C 496.226,82.1854 497.893,82.0187 499.5,82C 499.043,82.414 498.709,82.914 498.5,83.5C 501.531,86.2372 502.198,89.5706 500.5,93.5C 503.263,122.875 503.097,152.208 500,181.5C 497.672,183.65 496.339,186.317 496,189.5C 495.586,189.043 495.086,188.709 494.5,188.5C 493.167,189.5 491.833,190.5 490.5,191.5C 484.702,190.874 479.036,190.207 473.5,189.5 Z"/></g>
<g><path style="opacity:0.659" fill="#cf8066" d="M 133.5,95.5 C 134.5,95.5 135.5,95.5 136.5,95.5C 136.998,100.152 137.331,104.819 137.5,109.5C 137.167,109.5 136.833,109.5 136.5,109.5C 136.006,104.697 135.006,100.03 133.5,95.5 Z"/></g>
<g><path style="opacity:1" fill="#d76a46" d="M 95.5,107.5 C 97.2789,109.344 99.6122,110.01 102.5,109.5C 104.579,109.971 106.579,110.637 108.5,111.5C 108.5,112.167 108.5,112.833 108.5,113.5C 96.0182,108.974 83.0182,107.307 69.5,108.5C 69.5,108.167 69.5,107.833 69.5,107.5C 78.1365,106.193 86.8032,106.193 95.5,107.5 Z"/></g>
<g><path style="opacity:0.997" fill="#e5592b" d="M 69.5,108.5 C 83.0182,107.307 96.0182,108.974 108.5,113.5C 110.515,114.924 112.848,115.59 115.5,115.5C 115.833,115.5 116.167,115.5 116.5,115.5C 117.782,117.464 119.115,119.464 120.5,121.5C 117.205,122.401 113.872,122.401 110.5,121.5C 110.5,120.5 110.5,119.5 110.5,118.5C 103.646,118.176 96.979,118.509 90.5,119.5C 89.8333,119.5 89.1667,119.5 88.5,119.5C 85.8067,119.572 83.1401,119.905 80.5,120.5C 78.9704,120.64 77.9704,121.307 77.5,122.5C 73.8832,122.483 70.5499,123.483 67.5,125.5C 66.3881,126.265 65.7214,127.265 65.5,128.5C 60.8333,132.5 56.5,136.833 52.5,141.5C 48.917,144.218 46.917,147.885 46.5,152.5C 46.1667,153.5 45.5,154.167 44.5,154.5C 40.2557,155.812 35.9223,156.312 31.5,156C 28.3824,154.698 25.7157,152.865 23.5,150.5C 22.2134,146.732 22.2134,143.065 23.5,139.5C 25.3638,138.18 27.0305,136.513 28.5,134.5C 29.1272,133.583 29.4606,132.583 29.5,131.5C 31.8333,129.833 33.8333,127.833 35.5,125.5C 36.5,123.833 37.8333,122.5 39.5,121.5C 42.2921,121.378 44.2921,120.044 45.5,117.5C 47.5664,115.801 49.8997,114.468 52.5,113.5C 58.2188,111.723 63.8855,110.057 69.5,108.5 Z"/></g>
<g><path style="opacity:1" fill="#e7a288" d="M 95.5,107.5 C 98.0673,107.721 100.401,108.388 102.5,109.5C 99.6122,110.01 97.2789,109.344 95.5,107.5 Z"/></g>
<g><path style="opacity:0.998" fill="#141e28" d="M 752.5,89.5 C 754.117,90.5893 754.95,92.256 755,94.5C 755.5,118.831 755.667,143.164 755.5,167.5C 754.833,144.5 754.167,121.5 753.5,98.5C 753.037,95.5176 752.704,92.5176 752.5,89.5 Z"/></g>
<g><path style="opacity:1" fill="#db8060" d="M 69.5,107.5 C 69.5,107.833 69.5,108.167 69.5,108.5C 63.8855,110.057 58.2188,111.723 52.5,113.5C 57.6004,110.127 63.267,108.127 69.5,107.5 Z"/></g>
<g><path style="opacity:1" fill="#e9a082" d="M 254.5,113.5 C 251.225,112.875 248.058,111.875 245,110.5C 242.502,110.917 240.002,111.251 237.5,111.5C 243.726,107.103 249.392,107.77 254.5,113.5 Z"/></g>
<g><path style="opacity:0.875" fill="#fefcfb" d="M 136.5,109.5 C 136.833,109.5 137.167,109.5 137.5,109.5C 139.449,112.147 141.449,112.147 143.5,109.5C 145.328,111.115 147.328,111.448 149.5,110.5C 149.392,112.514 150.058,114.18 151.5,115.5C 151.662,118.669 153.328,120.669 156.5,121.5C 157.182,120.757 157.849,120.091 158.5,119.5C 158.183,122.546 159.516,124.213 162.5,124.5C 162.286,126.144 162.62,127.644 163.5,129C 165.473,129.495 167.473,129.662 169.5,129.5C 167.5,130.167 165.5,130.833 163.5,131.5C 162.566,132.568 162.232,133.901 162.5,135.5C 161.603,134.402 160.77,134.402 160,135.5C 159.505,137.473 159.338,139.473 159.5,141.5C 161.553,141.402 163.22,142.069 164.5,143.5C 160.759,142.599 158.759,143.932 158.5,147.5C 157.043,145.248 155.543,145.581 154,148.5C 153.421,149.928 153.588,151.262 154.5,152.5C 152.708,152.366 151.042,152.699 149.5,153.5C 149.53,152.503 149.03,151.836 148,151.5C 145.889,152.472 143.722,153.305 141.5,154C 142.056,154.383 142.389,154.883 142.5,155.5C 140.901,155.232 139.568,155.566 138.5,156.5C 138.167,156.5 137.833,156.5 137.5,156.5C 137.414,155.504 137.748,154.671 138.5,154C 136.323,152.798 133.989,152.298 131.5,152.5C 131.768,154.099 131.434,155.432 130.5,156.5C 130.5,155.167 130.5,153.833 130.5,152.5C 127.547,152.15 125.213,153.15 123.5,155.5C 123.703,153.956 124.37,152.622 125.5,151.5C 124.15,150.05 122.484,149.383 120.5,149.5C 121.72,147.716 121.72,146.05 120.5,144.5C 119.432,143.566 118.099,143.232 116.5,143.5C 117.263,142.732 118.263,142.232 119.5,142C 118.809,140.933 118.309,139.766 118,138.5C 117.329,137.748 116.496,137.414 115.5,137.5C 118.997,135.664 119.33,133.33 116.5,130.5C 118.969,129.393 119.969,127.393 119.5,124.5C 122.053,122.295 122.053,119.962 119.5,117.5C 121.754,116.876 123.421,115.543 124.5,113.5C 127.869,116.6 129.869,115.933 130.5,111.5C 132.898,111.741 134.898,111.074 136.5,109.5 Z"/></g>
<g><path style="opacity:0.998" fill="#e5592c" d="M 254.5,113.5 C 254.427,115.027 255.094,116.027 256.5,116.5C 256.477,121.606 255.811,126.606 254.5,131.5C 247.978,140.691 239.645,147.691 229.5,152.5C 223.982,153.839 218.649,155.672 213.5,158C 204.546,159.264 195.546,159.764 186.5,159.5C 185.833,159.5 185.167,159.5 184.5,159.5C 180.099,155.399 174.766,153.399 168.5,153.5C 167.313,151.025 165.313,150.025 162.5,150.5C 161.27,148.703 160.604,146.703 160.5,144.5C 163.518,144.704 166.518,145.037 169.5,145.5C 171.78,147.223 174.447,147.889 177.5,147.5C 181.833,147.5 186.167,147.5 190.5,147.5C 195.519,147.248 200.519,146.748 205.5,146C 207.841,144.047 210.507,142.881 213.5,142.5C 213.5,141.5 213.5,140.5 213.5,139.5C 215.435,138.85 217.435,138.517 219.5,138.5C 220.043,135.962 221.043,133.628 222.5,131.5C 225.407,130.266 227.741,128.266 229.5,125.5C 232.188,120.783 234.855,116.116 237.5,111.5C 240.002,111.251 242.502,110.917 245,110.5C 248.058,111.875 251.225,112.875 254.5,113.5 Z"/></g>
<g><path style="opacity:0.008" fill="#858a90" d="M 460.5,93.5 C 459.582,117.818 459.249,142.151 459.5,166.5C 458.337,144.337 458.17,122.004 459,99.5C 459.191,97.2922 459.691,95.2922 460.5,93.5 Z"/></g>
<g><path style="opacity:0.992" fill="#da7b5b" d="M 151.5,106.5 C 151.643,108.262 151.309,109.929 150.5,111.5C 152.396,112.466 154.396,112.799 156.5,112.5C 155.599,114.727 153.933,115.727 151.5,115.5C 150.058,114.18 149.392,112.514 149.5,110.5C 149.66,108.847 150.326,107.514 151.5,106.5 Z"/></g>
<g><path style="opacity:0.455" fill="#e4ad98" d="M 169.5,109.5 C 168.5,112.5 166.5,114.5 163.5,115.5C 165.167,113.167 167.167,111.167 169.5,109.5 Z"/></g>
<g><path style="opacity:0.992" fill="#e58e70" d="M 108.5,111.5 C 111.317,112.095 113.65,113.428 115.5,115.5C 112.848,115.59 110.515,114.924 108.5,113.5C 108.5,112.833 108.5,112.167 108.5,111.5 Z"/></g>
<g><path style="opacity:0.992" fill="#d67857" d="M 119.5,107.5 C 120.583,107.539 121.583,107.873 122.5,108.5C 123.581,111.877 125.914,113.544 129.5,113.5C 129.5,111.833 129.5,110.167 129.5,108.5C 130.404,109.209 130.737,110.209 130.5,111.5C 129.869,115.933 127.869,116.6 124.5,113.5C 122.844,111.54 121.177,109.54 119.5,107.5 Z"/></g>
<g><path style="opacity:0.627" fill="#fbccb0" d="M 254.5,113.5 C 255.906,113.973 256.573,114.973 256.5,116.5C 255.094,116.027 254.427,115.027 254.5,113.5 Z"/></g>
<g><path style="opacity:0.937" fill="#da886b" d="M 45.5,117.5 C 44.2921,120.044 42.2921,121.378 39.5,121.5C 41.2228,119.782 43.2228,118.449 45.5,117.5 Z"/></g>
<g><path style="opacity:1" fill="#e17754" d="M 90.5,119.5 C 96.979,118.509 103.646,118.176 110.5,118.5C 110.5,119.5 110.5,120.5 110.5,121.5C 103.986,119.795 97.3189,119.129 90.5,119.5 Z"/></g>
<g><path style="opacity:0.984" fill="#d57c5c" d="M 205.5,103.5 C 205.392,105.783 204.559,107.783 203,109.5C 199.353,113.982 195.519,118.315 191.5,122.5C 188.85,124.494 185.85,125.494 182.5,125.5C 192.117,120.216 199.784,112.883 205.5,103.5 Z"/></g>
<g><path style="opacity:0.984" fill="#e08766" d="M 88.5,119.5 C 85.0635,120.945 81.3968,121.945 77.5,122.5C 77.9704,121.307 78.9704,120.64 80.5,120.5C 83.1401,119.905 85.8067,119.572 88.5,119.5 Z"/></g>
<g><path style="opacity:0.992" fill="#d37c5f" d="M 163.5,115.5 C 163.25,116.922 162.417,117.922 161,118.5C 160.51,119.793 160.343,121.127 160.5,122.5C 162.167,122.5 163.833,122.5 165.5,122.5C 164.71,123.401 163.71,124.068 162.5,124.5C 159.516,124.213 158.183,122.546 158.5,119.5C 159.579,117.457 161.246,116.124 163.5,115.5 Z"/></g>
<g><path style="opacity:0.996" fill="#d77a59" d="M 116.5,115.5 C 117.71,115.932 118.71,116.599 119.5,117.5C 122.053,119.962 122.053,122.295 119.5,124.5C 116.215,124.072 113.215,123.072 110.5,121.5C 113.872,122.401 117.205,122.401 120.5,121.5C 119.115,119.464 117.782,117.464 116.5,115.5 Z"/></g>
<g><path style="opacity:0.976" fill="#db7452" d="M 77.5,122.5 C 73.5342,124.483 69.5342,126.483 65.5,128.5C 65.7214,127.265 66.3881,126.265 67.5,125.5C 70.5499,123.483 73.8832,122.483 77.5,122.5 Z"/></g>
<g><path style="opacity:0.992" fill="#e9906c" d="M 256.5,116.5 C 257.645,120.311 257.812,124.311 257,128.5C 256.623,129.942 255.79,130.942 254.5,131.5C 255.811,126.606 256.477,121.606 256.5,116.5 Z"/></g>
<g><path style="opacity:0.996" fill="#e38161" d="M 206.5,126.5 C 203.76,128.56 200.76,130.226 197.5,131.5C 197.5,130.5 197.5,129.5 197.5,128.5C 200.5,127.833 203.5,127.167 206.5,126.5 Z"/></g>
<g><path style="opacity:0.984" fill="#d88165" d="M 237.5,111.5 C 234.855,116.116 232.188,120.783 229.5,125.5C 227.741,128.266 225.407,130.266 222.5,131.5C 226.899,125.92 230.732,119.92 234,113.5C 234.816,112.177 235.983,111.511 237.5,111.5 Z"/></g>
<g><path style="opacity:0.729" fill="#e9b19d" d="M 35.5,125.5 C 33.8333,127.833 31.8333,129.833 29.5,131.5C 30.5,128.5 32.5,126.5 35.5,125.5 Z"/></g>
<g><path style="opacity:0.992" fill="#e29074" d="M 180.5,126.5 C 178.565,127.81 176.565,129.143 174.5,130.5C 172.929,129.691 171.262,129.357 169.5,129.5C 173.011,128.336 176.677,127.336 180.5,126.5 Z"/></g>
<g><path style="opacity:0.992" fill="#d9704b" d="M 116.5,130.5 C 119.33,133.33 118.997,135.664 115.5,137.5C 110.333,137.709 105.333,138.709 100.5,140.5C 101.007,139.141 102.007,138.141 103.5,137.5C 107.122,136.675 110.789,136.175 114.5,136C 115.973,135.29 116.64,134.124 116.5,132.5C 110.158,132.334 103.825,132.5 97.5,133C 91.4379,134.224 85.4379,135.724 79.5,137.5C 79.5,138.5 79.5,139.5 79.5,140.5C 77.0971,140.448 74.7638,140.781 72.5,141.5C 77.3342,137.32 83.0009,134.653 89.5,133.5C 92.1522,133.59 94.4855,132.924 96.5,131.5C 103.172,130.242 109.839,129.908 116.5,130.5 Z"/></g>
<g><path style="opacity:0.961" fill="#dc947e" d="M 96.5,131.5 C 94.4855,132.924 92.1522,133.59 89.5,133.5C 91.5145,132.076 93.8478,131.41 96.5,131.5 Z"/></g>
<g><path style="opacity:0.997" fill="#e5592b" d="M 100.5,140.5 C 89.9489,146.052 81.2823,153.719 74.5,163.5C 72.744,164.552 72.0773,166.219 72.5,168.5C 72.1667,169.167 71.8333,169.833 71.5,170.5C 70.5041,170.414 69.6708,170.748 69,171.5C 66.7486,181.277 65.9153,191.277 66.5,201.5C 65.9202,203.749 64.5869,205.415 62.5,206.5C 56.2957,207.192 50.6291,205.859 45.5,202.5C 44.503,195.532 44.1697,188.532 44.5,181.5C 48.3871,174.055 52.0537,166.388 55.5,158.5C 57.8227,156.678 59.9893,154.678 62,152.5C 62.4828,151.552 62.6495,150.552 62.5,149.5C 66.5719,147.792 69.9052,145.126 72.5,141.5C 74.7638,140.781 77.0971,140.448 79.5,140.5C 79.5,139.5 79.5,138.5 79.5,137.5C 85.4379,135.724 91.4379,134.224 97.5,133C 103.825,132.5 110.158,132.334 116.5,132.5C 116.64,134.124 115.973,135.29 114.5,136C 110.789,136.175 107.122,136.675 103.5,137.5C 102.007,138.141 101.007,139.141 100.5,140.5 Z"/></g>
<g><path style="opacity:0.894" fill="#de8264" d="M 196.5,131.5 C 193.085,133.279 189.419,134.613 185.5,135.5C 188.509,132.682 192.175,131.349 196.5,131.5 Z"/></g>
<g><path style="opacity:0.992" fill="#dd886a" d="M 29.5,131.5 C 29.4606,132.583 29.1272,133.583 28.5,134.5C 27.0305,136.513 25.3638,138.18 23.5,139.5C 24.3528,135.98 26.3528,133.313 29.5,131.5 Z"/></g>
<g><path style="opacity:0.91" fill="#d47b5f" d="M 163.5,131.5 C 163.5,132.833 163.5,134.167 163.5,135.5C 170.167,135.5 176.833,135.5 183.5,135.5C 178.668,136.327 173.668,136.993 168.5,137.5C 166.201,137.401 164.201,136.734 162.5,135.5C 162.232,133.901 162.566,132.568 163.5,131.5 Z"/></g>
<g><path style="opacity:0.969" fill="#d97350" d="M 222.5,131.5 C 221.043,133.628 220.043,135.962 219.5,138.5C 217.435,138.517 215.435,138.85 213.5,139.5C 216.474,136.862 219.474,134.195 222.5,131.5 Z"/></g>
<g><path style="opacity:0.984" fill="#d98163" d="M 116.5,143.5 C 118.099,143.232 119.432,143.566 120.5,144.5C 116.763,145.2 113.096,146.2 109.5,147.5C 111.336,145.412 113.669,144.079 116.5,143.5 Z"/></g>
<g><path style="opacity:0.998" fill="#e55c2f" d="M 120.5,144.5 C 121.72,146.05 121.72,147.716 120.5,149.5C 115.514,152.821 111.18,156.821 107.5,161.5C 106.5,161.5 105.5,161.5 104.5,161.5C 103.611,165.121 102.278,168.621 100.5,172C 99.744,175.125 99.4107,178.291 99.5,181.5C 97.5352,196.351 100.535,210.018 108.5,222.5C 109.162,226.466 109.495,230.466 109.5,234.5C 109.378,237.292 108.044,239.292 105.5,240.5C 98.1166,241.346 91.45,239.679 85.5,235.5C 85.8799,233.302 85.2132,231.635 83.5,230.5C 83.9465,227.99 83.2798,225.99 81.5,224.5C 81.9321,221.123 81.2655,218.123 79.5,215.5C 78.1955,207.53 78.1955,199.53 79.5,191.5C 81.1628,189.562 81.8294,187.228 81.5,184.5C 81.5,184.167 81.5,183.833 81.5,183.5C 86.0045,176.495 90.0045,169.161 93.5,161.5C 96.7301,161.439 98.5635,159.772 99,156.5C 101.998,154.667 104.498,152.334 106.5,149.5C 106.973,148.094 107.973,147.427 109.5,147.5C 113.096,146.2 116.763,145.2 120.5,144.5 Z"/></g>
<g><path style="opacity:1" fill="#da866a" d="M 164.5,143.5 C 166.403,143.796 168.07,144.463 169.5,145.5C 166.518,145.037 163.518,144.704 160.5,144.5C 160.604,146.703 161.27,148.703 162.5,150.5C 160.596,150.262 159.262,149.262 158.5,147.5C 158.759,143.932 160.759,142.599 164.5,143.5 Z"/></g>
<g><path style="opacity:1" fill="#db7350" d="M 213.5,139.5 C 213.5,140.5 213.5,141.5 213.5,142.5C 210.507,142.881 207.841,144.047 205.5,146C 200.519,146.748 195.519,147.248 190.5,147.5C 198.486,146.059 206.153,143.392 213.5,139.5 Z"/></g>
<g><path style="opacity:0.843" fill="#eaac97" d="M 169.5,145.5 C 172.373,145.802 175.039,146.469 177.5,147.5C 174.447,147.889 171.78,147.223 169.5,145.5 Z"/></g>
<g><path style="opacity:1" fill="#e18664" d="M 52.5,141.5 C 50.7505,145.335 48.7505,149.001 46.5,152.5C 46.917,147.885 48.917,144.218 52.5,141.5 Z"/></g>
<g><path style="opacity:0.82" fill="#da876d" d="M 72.5,141.5 C 69.9052,145.126 66.5719,147.792 62.5,149.5C 65.4595,146.355 68.7929,143.688 72.5,141.5 Z"/></g>
<g><path style="opacity:0.992" fill="#db876a" d="M 162.5,150.5 C 165.313,150.025 167.313,151.025 168.5,153.5C 166.456,152.492 164.456,151.492 162.5,150.5 Z"/></g>
<g><path style="opacity:0.82" fill="#df9177" d="M 106.5,149.5 C 104.498,152.334 101.998,154.667 99,156.5C 98.5635,159.772 96.7301,161.439 93.5,161.5C 96.7914,156.357 101.125,152.357 106.5,149.5 Z"/></g>
<g><path style="opacity:0.998" fill="#e55b2e" d="M 130.5,156.5 C 130.443,157.609 130.11,158.609 129.5,159.5C 128.5,159.5 127.5,159.5 126.5,159.5C 126.5,162.5 126.5,165.5 126.5,168.5C 125.641,175.813 125.974,183.146 127.5,190.5C 127.804,193.522 128.304,196.522 129,199.5C 129.498,201.544 130.665,202.878 132.5,203.5C 137.121,211.122 143.121,217.455 150.5,222.5C 150.414,223.496 150.748,224.329 151.5,225C 155.004,226.254 158.337,227.754 161.5,229.5C 164.36,233.662 165.193,238.328 164,243.5C 162.924,246.079 161.091,247.746 158.5,248.5C 153.5,248.5 148.5,248.5 143.5,248.5C 141.596,248.262 140.262,247.262 139.5,245.5C 138.128,242.466 135.794,240.466 132.5,239.5C 132.512,236.858 131.179,235.525 128.5,235.5C 128.167,234.833 127.833,234.167 127.5,233.5C 122.232,223.006 117.566,212.34 113.5,201.5C 112.132,193.641 112.465,185.974 114.5,178.5C 115.693,178.03 116.36,177.03 116.5,175.5C 117.095,172.86 117.428,170.193 117.5,167.5C 118.5,167.5 119.5,167.5 120.5,167.5C 120.833,164.833 121.167,162.167 121.5,159.5C 121.66,157.847 122.326,156.514 123.5,155.5C 125.213,153.15 127.547,152.15 130.5,152.5C 130.5,153.833 130.5,155.167 130.5,156.5 Z"/></g>
<g><path style="opacity:1" fill="#da8467" d="M 154.5,152.5 C 156.587,153.585 157.92,155.251 158.5,157.5C 156.637,155.295 154.303,153.961 151.5,153.5C 151.576,156.973 152.242,160.306 153.5,163.5C 151.216,160.701 149.55,157.534 148.5,154C 148.728,153.601 149.062,153.435 149.5,153.5C 151.042,152.699 152.708,152.366 154.5,152.5 Z"/></g>
<g><path style="opacity:0.998" fill="#e5592b" d="M 158.5,157.5 C 161.167,159.833 163.833,162.167 166.5,164.5C 166.787,167.484 168.454,168.817 171.5,168.5C 172.492,168.328 173.158,168.662 173.5,169.5C 176.504,172.149 180.171,173.482 184.5,173.5C 186.861,173.674 189.194,174.007 191.5,174.5C 193.743,175.812 196.41,176.478 199.5,176.5C 202.167,176.333 204.833,176.167 207.5,176C 210.044,174.908 212.711,174.241 215.5,174C 217.747,172.723 219.747,171.223 221.5,169.5C 226.383,167.562 231.383,165.895 236.5,164.5C 239.394,164.994 242.061,165.994 244.5,167.5C 245.833,168.5 247.167,169.5 248.5,170.5C 248.5,170.833 248.5,171.167 248.5,171.5C 248.5,174.5 248.5,177.5 248.5,180.5C 248.155,183.198 246.822,185.198 244.5,186.5C 241.68,186.087 239.68,187.087 238.5,189.5C 232.276,189.857 226.276,191.024 220.5,193C 212.507,193.5 204.507,193.666 196.5,193.5C 196.167,193.5 195.833,193.5 195.5,193.5C 190.666,190.368 185.333,188.368 179.5,187.5C 177.326,187.25 175.659,186.25 174.5,184.5C 173.404,181.227 171.071,179.561 167.5,179.5C 164.167,176.833 161.167,173.833 158.5,170.5C 159.315,166.167 157.648,163.834 153.5,163.5C 152.242,160.306 151.576,156.973 151.5,153.5C 154.303,153.961 156.637,155.295 158.5,157.5 Z"/></g>
<g><path style="opacity:1" fill="#da7755" d="M 168.5,153.5 C 174.766,153.399 180.099,155.399 184.5,159.5C 178.715,158.464 173.382,156.464 168.5,153.5 Z"/></g>
<g><path style="opacity:0.996" fill="#da7e5e" d="M 229.5,152.5 C 228.942,153.79 227.942,154.623 226.5,155C 213.448,160.67 200.115,162.17 186.5,159.5C 195.546,159.764 204.546,159.264 213.5,158C 218.649,155.672 223.982,153.839 229.5,152.5 Z"/></g>
<g><path style="opacity:1" fill="#d88061" d="M 62.5,149.5 C 62.6495,150.552 62.4828,151.552 62,152.5C 59.9893,154.678 57.8227,156.678 55.5,158.5C 57.1108,154.949 59.4442,151.949 62.5,149.5 Z"/></g>
<g><path style="opacity:0.965" fill="#df8766" d="M 23.5,150.5 C 25.7157,152.865 28.3824,154.698 31.5,156C 35.9223,156.312 40.2557,155.812 44.5,154.5C 39.2443,158.768 33.5777,159.268 27.5,156C 25.5612,154.568 24.2279,152.735 23.5,150.5 Z"/></g>
<g><path style="opacity:0.998" fill="#e5582a" d="M 138.5,156.5 C 139.833,156.5 141.167,156.5 142.5,156.5C 142.781,160.188 143.281,163.855 144,167.5C 144.522,170.281 145.689,172.615 147.5,174.5C 149.025,176.216 150.025,178.216 150.5,180.5C 150.414,183.958 152.081,185.958 155.5,186.5C 156.167,189.167 157.833,190.833 160.5,191.5C 160.709,192.922 161.209,194.255 162,195.5C 174.447,205.08 188.613,208.913 204.5,207C 206.743,208.136 209.076,208.97 211.5,209.5C 212.906,209.973 213.573,210.973 213.5,212.5C 214.833,216.5 214.833,220.5 213.5,224.5C 213.262,226.404 212.262,227.738 210.5,228.5C 206.411,228.334 203.244,229.001 201,230.5C 195.817,229.879 190.651,229.212 185.5,228.5C 183.901,228.768 182.568,228.434 181.5,227.5C 177.315,225.126 173.315,222.292 169.5,219C 168.207,218.51 166.873,218.343 165.5,218.5C 163.163,213.145 159.163,209.812 153.5,208.5C 150.353,203.539 147.686,198.206 145.5,192.5C 144.717,190.712 143.384,189.712 141.5,189.5C 141.975,186.918 141.308,184.918 139.5,183.5C 139.5,183.167 139.5,182.833 139.5,182.5C 138.747,173.854 138.413,165.188 138.5,156.5 Z"/></g>
<g><path style="opacity:1" fill="#e98665" d="M 129.5,159.5 C 128.946,162.746 127.946,165.746 126.5,168.5C 126.5,165.5 126.5,162.5 126.5,159.5C 127.5,159.5 128.5,159.5 129.5,159.5 Z"/></g>
<g><path style="opacity:0.992" fill="#576983" d="M 789.5,155.5 C 789.665,158.518 789.498,161.518 789,164.5C 788.129,170.459 786.629,176.125 784.5,181.5C 784.366,177.698 785.033,174.032 786.5,170.5C 785.986,168.395 785.653,166.561 785.5,165C 787.613,162.068 788.946,158.901 789.5,155.5 Z"/></g>
<g><path style="opacity:1" fill="#e59072" d="M 74.5,163.5 C 74.5979,165.553 73.9313,167.22 72.5,168.5C 72.0773,166.219 72.744,164.552 74.5,163.5 Z"/></g>
<g><path style="opacity:0.995" fill="#de7652" d="M 153.5,163.5 C 157.648,163.834 159.315,166.167 158.5,170.5C 156.478,168.469 154.811,166.135 153.5,163.5 Z"/></g>
<g><path style="opacity:1" fill="#d87a5b" d="M 244.5,165.5 C 244.5,166.167 244.5,166.833 244.5,167.5C 242.061,165.994 239.394,164.994 236.5,164.5C 231.383,165.895 226.383,167.562 221.5,169.5C 228.384,163.292 236.051,161.959 244.5,165.5 Z"/></g>
<g><path style="opacity:0.989" fill="#d88062" d="M 137.5,156.5 C 137.833,156.5 138.167,156.5 138.5,156.5C 138.413,165.188 138.747,173.854 139.5,182.5C 138.239,179.742 137.406,176.742 137,173.5C 136.182,167.651 136.348,161.985 137.5,156.5 Z"/></g>
<g><path style="opacity:1" fill="#d97350" d="M 121.5,159.5 C 121.167,162.167 120.833,164.833 120.5,167.5C 119.5,167.5 118.5,167.5 117.5,167.5C 118.326,164.515 119.659,161.849 121.5,159.5 Z"/></g>
<g><path style="opacity:0.953" fill="#e68f6f" d="M 138.5,156.5 C 139.568,155.566 140.901,155.232 142.5,155.5C 143.925,161.776 145.592,168.109 147.5,174.5C 145.689,172.615 144.522,170.281 144,167.5C 143.281,163.855 142.781,160.188 142.5,156.5C 141.167,156.5 139.833,156.5 138.5,156.5 Z"/></g>
<g><path style="opacity:1" fill="#f4c3ab" d="M 244.5,165.5 C 246.587,166.585 247.92,168.251 248.5,170.5C 247.167,169.5 245.833,168.5 244.5,167.5C 244.5,166.833 244.5,166.167 244.5,165.5 Z"/></g>
<g><path style="opacity:0.992" fill="#e48d69" d="M 166.5,164.5 C 168.191,165.864 169.858,167.197 171.5,168.5C 168.454,168.817 166.787,167.484 166.5,164.5 Z"/></g>
<g><path style="opacity:1" fill="#d87859" d="M 55.5,158.5 C 52.0537,166.388 48.3871,174.055 44.5,181.5C 46.1982,174.095 49.0315,167.095 53,160.5C 53.7083,159.619 54.5416,158.953 55.5,158.5 Z"/></g>
<g><path style="opacity:0.976" fill="#e3835c" d="M 107.5,161.5 C 103.828,167.867 101.161,174.534 99.5,181.5C 99.4107,178.291 99.744,175.125 100.5,172C 102.278,168.621 103.611,165.121 104.5,161.5C 105.5,161.5 106.5,161.5 107.5,161.5 Z"/></g>
<g><path style="opacity:0.976" fill="#e99a7e" d="M 173.5,169.5 C 177.341,170.598 181.008,171.931 184.5,173.5C 180.171,173.482 176.504,172.149 173.5,169.5 Z"/></g>
<g><path style="opacity:0.992" fill="#2f3c50" d="M 677.5,114.5 C 677.833,114.5 678.167,114.5 678.5,114.5C 678.248,130.525 678.748,146.525 680,162.5C 680.979,167.436 682.813,171.936 685.5,176C 685.152,178.055 685.819,180.055 687.5,182C 686.424,183.726 686.257,185.559 687,187.5C 689.511,190.68 691.845,194.013 694,197.5C 694.909,199.658 695.075,201.658 694.5,203.5C 687.03,194.552 682.196,184.219 680,172.5C 677.2,153.239 676.367,133.906 677.5,114.5 Z"/></g>
<g><path style="opacity:0.861" fill="#ffc8af" d="M 248.5,171.5 C 251.017,174.461 251.017,177.461 248.5,180.5C 248.5,177.5 248.5,174.5 248.5,171.5 Z"/></g>
<g><path style="opacity:0.992" fill="#d67c5c" d="M 93.5,161.5 C 90.0045,169.161 86.0045,176.495 81.5,183.5C 83.9505,175.261 87.9505,167.928 93.5,161.5 Z"/></g>
<g><path style="opacity:0.997" fill="#d27355" d="M 117.5,167.5 C 117.428,170.193 117.095,172.86 116.5,175.5C 116.36,177.03 115.693,178.03 114.5,178.5C 114.926,174.573 115.926,170.907 117.5,167.5 Z"/></g>
<g><path style="opacity:1" fill="#db7c5c" d="M 221.5,169.5 C 219.747,171.223 217.747,172.723 215.5,174C 212.711,174.241 210.044,174.908 207.5,176C 204.833,176.167 202.167,176.333 199.5,176.5C 196.41,176.478 193.743,175.812 191.5,174.5C 202.008,175.557 212.008,173.89 221.5,169.5 Z"/></g>
<g><path style="opacity:0.988" fill="#2b3e59" d="M 460.5,175.5 C 461.954,178.408 463.454,181.408 465,184.5C 467.426,186.452 469.926,188.119 472.5,189.5C 469.738,190.459 467.238,190.459 465,189.5C 462.101,186.368 459.934,183.202 458.5,180C 460.107,178.951 460.773,177.451 460.5,175.5 Z"/></g>
<g><path style="opacity:1" fill="#d9795a" d="M 167.5,179.5 C 171.071,179.561 173.404,181.227 174.5,184.5C 171.63,183.567 169.296,181.9 167.5,179.5 Z"/></g>
<g><path style="opacity:0.993" fill="#525c70" d="M 753.5,98.5 C 754.167,121.5 754.833,144.5 755.5,167.5C 756.239,167.369 756.906,167.536 757.5,168C 756.167,170 756.167,172 757.5,174C 753.9,177.368 752.067,181.535 752,186.5C 750.185,188.405 748.185,190.072 746,191.5C 742.27,190.54 738.437,190.207 734.5,190.5C 743.246,190.2 749.08,185.866 752,177.5C 753.455,151.21 753.955,124.876 753.5,98.5 Z"/></g>
<g><path style="opacity:0.988" fill="#2e435f" d="M 714.5,175.5 C 716.079,179.149 718.079,182.649 720.5,186C 724.353,188.121 728.353,189.621 732.5,190.5C 728.894,190.211 725.394,190.544 722,191.5C 721.383,190.551 721.549,189.718 722.5,189C 720.892,188.342 719.725,188.842 719,190.5C 718.486,187.972 717.32,185.805 715.5,184C 715.833,183.667 716.167,183.333 716.5,183C 715.5,182.667 714.5,182.333 713.5,182C 714.423,179.959 714.756,177.792 714.5,175.5 Z"/></g>
<g><path style="opacity:0.996" fill="#db734f" d="M 71.5,170.5 C 69.1189,180.334 67.9522,190.334 68,200.5C 67.6174,201.056 67.1174,201.389 66.5,201.5C 65.9153,191.277 66.7486,181.277 69,171.5C 69.6708,170.748 70.5041,170.414 71.5,170.5 Z"/></g>
<g><path style="opacity:1" fill="#de9781" d="M 139.5,183.5 C 141.308,184.918 141.975,186.918 141.5,189.5C 140.542,187.698 139.875,185.698 139.5,183.5 Z"/></g>
<g><path style="opacity:0.863" fill="#e78f6d" d="M 150.5,180.5 C 152.156,182.46 153.823,184.46 155.5,186.5C 152.081,185.958 150.414,183.958 150.5,180.5 Z"/></g>
<g><path style="opacity:1" fill="#e78c6d" d="M 244.5,186.5 C 242.97,188.346 240.97,189.346 238.5,189.5C 239.68,187.087 241.68,186.087 244.5,186.5 Z"/></g>
<g><path style="opacity:0.992" fill="#50607b" d="M 533.5,170.5 C 532.538,178.052 530.205,185.052 526.5,191.5C 526.461,190.417 526.127,189.417 525.5,188.5C 527.918,185.278 529.584,181.611 530.5,177.5C 530.291,176.006 529.624,174.839 528.5,174C 529.167,173.667 529.833,173.333 530.5,173C 529.66,171.334 530.16,171.167 532,172.5C 532.278,171.584 532.778,170.918 533.5,170.5 Z"/></g>
<g><path style="opacity:0.737" fill="#f0ad96" d="M 155.5,186.5 C 157.5,187.833 159.167,189.5 160.5,191.5C 157.833,190.833 156.167,189.167 155.5,186.5 Z"/></g>
<g><path style="opacity:1" fill="#db7854" d="M 179.5,187.5 C 185.333,188.368 190.666,190.368 195.5,193.5C 189.686,192.585 184.353,190.585 179.5,187.5 Z"/></g>
<g><path style="opacity:0.99" fill="#394d69" d="M 783.5,185.5 C 782.201,190.764 779.868,195.431 776.5,199.5C 776.229,197.179 776.896,195.179 778.5,193.5C 778.167,192.833 777.833,192.167 777.5,191.5C 779.829,190.229 780.995,188.229 781,185.5C 781.77,186.598 782.603,186.598 783.5,185.5 Z"/></g>
<g><path style="opacity:0.251" fill="#ebab99" d="M 81.5,184.5 C 81.8294,187.228 81.1628,189.562 79.5,191.5C 79.4095,188.848 80.0762,186.515 81.5,184.5 Z"/></g>
<g><path style="opacity:1" fill="#e08362" d="M 238.5,189.5 C 224.918,195.448 210.918,196.782 196.5,193.5C 204.507,193.666 212.507,193.5 220.5,193C 226.276,191.024 232.276,189.857 238.5,189.5 Z"/></g>
<g><path style="opacity:0.992" fill="#e6af9a" d="M 43.5,184.5 C 43.3314,189.181 42.9981,193.848 42.5,198.5C 41.5033,193.787 41.8366,189.12 43.5,184.5 Z"/></g>
<g><path style="opacity:1" fill="#d97655" d="M 141.5,189.5 C 143.384,189.712 144.717,190.712 145.5,192.5C 147.686,198.206 150.353,203.539 153.5,208.5C 147.891,203.216 143.891,196.883 141.5,189.5 Z"/></g>
<g><path style="opacity:0.004" fill="#ffe0d5" d="M 162.5,193.5 C 164.027,193.427 165.027,194.094 165.5,195.5C 163.973,195.573 162.973,194.906 162.5,193.5 Z"/></g>
<g><path style="opacity:0.008" fill="#dfe6ef" d="M 524.5,196.5 C 524.573,198.027 523.906,199.027 522.5,199.5C 522.5,198.833 522.5,198.167 522.5,197.5C 523.167,197.167 523.833,196.833 524.5,196.5 Z"/></g>
<g><path style="opacity:0.984" fill="#e38764" d="M 127.5,190.5 C 129.004,194.806 130.67,199.139 132.5,203.5C 130.665,202.878 129.498,201.544 129,199.5C 128.304,196.522 127.804,193.522 127.5,190.5 Z"/></g>
<g><path style="opacity:0.971" fill="#e08362" d="M 160.5,191.5 C 161.5,191.833 162.167,192.5 162.5,193.5C 162.973,194.906 163.973,195.573 165.5,195.5C 169.313,197.908 173.313,200.075 177.5,202C 187.416,203.878 197.416,205.212 207.5,206C 209.324,206.66 210.657,207.827 211.5,209.5C 209.076,208.97 206.743,208.136 204.5,207C 188.613,208.913 174.447,205.08 162,195.5C 161.209,194.255 160.709,192.922 160.5,191.5 Z"/></g>
<g><path style="opacity:0.329" fill="#fcd7c2" d="M 46.5,205.5 C 48.0269,205.427 49.0269,206.094 49.5,207.5C 47.9731,207.573 46.9731,206.906 46.5,205.5 Z"/></g>
<g><path style="opacity:0.996" fill="#dc7b58" d="M 44.5,181.5 C 44.1697,188.532 44.503,195.532 45.5,202.5C 50.6291,205.859 56.2957,207.192 62.5,206.5C 58.3611,209.958 54.0277,210.291 49.5,207.5C 49.0269,206.094 48.0269,205.427 46.5,205.5C 43.8881,203.948 42.5548,201.614 42.5,198.5C 42.9981,193.848 43.3314,189.181 43.5,184.5C 43.2627,183.209 43.596,182.209 44.5,181.5 Z"/></g>
<g><path style="opacity:0.765" fill="#a5acb5" d="M 442.5,206.5 C 444.027,206.427 445.027,207.094 445.5,208.5C 443.973,208.573 442.973,207.906 442.5,206.5 Z"/></g>
<g><path style="opacity:0.995" fill="#334460" d="M 776.5,199.5 C 769.859,209.499 760.525,215.499 748.5,217.5C 748.082,216.778 747.416,216.278 746.5,216C 753.617,213.978 760.617,210.811 767.5,206.5C 768.298,204.922 768.798,203.256 769,201.5C 769.333,202.167 769.667,202.833 770,203.5C 771.5,202.667 772.667,201.5 773.5,200C 774.448,199.517 775.448,199.351 776.5,199.5 Z"/></g>
<g><path style="opacity:0.987" fill="#334460" d="M 522.5,197.5 C 522.5,198.167 522.5,198.833 522.5,199.5C 515.443,209.529 505.777,215.529 493.5,217.5C 492.402,216.603 492.402,215.77 493.5,215C 495.101,214.727 496.601,214.227 498,213.5C 498.414,213.957 498.914,214.291 499.5,214.5C 501.79,213.258 503.623,211.592 505,209.5C 505.561,210.022 506.228,210.355 507,210.5C 513.592,206.89 518.592,202.223 522,196.5C 522.399,196.728 522.565,197.062 522.5,197.5 Z"/></g>
<g><path style="opacity:0.969" fill="#db704c" d="M 153.5,208.5 C 159.163,209.812 163.163,213.145 165.5,218.5C 160.619,216.291 156.619,212.957 153.5,208.5 Z"/></g>
<g><path style="opacity:0.955" fill="#051e35" d="M 306.5,187.5 C 318.167,187.5 329.833,187.5 341.5,187.5C 342.167,187.5 342.833,187.5 343.5,187.5C 332.295,188.187 320.962,188.853 309.5,189.5C 308.607,197.516 308.607,205.682 309.5,214C 342.003,214.168 374.336,214.668 406.5,215.5C 373.167,215.5 339.833,215.5 306.5,215.5C 306.5,206.167 306.5,196.833 306.5,187.5 Z"/></g>
<g><path style="opacity:0.914" fill="#788593" d="M 709.5,214.5 C 713.162,214.723 716.495,215.723 719.5,217.5C 715.838,217.277 712.505,216.277 709.5,214.5 Z"/></g>
<g><path style="opacity:0.039" fill="#bac5d0" d="M 306.5,187.5 C 306.5,196.833 306.5,206.167 306.5,215.5C 339.833,215.5 373.167,215.5 406.5,215.5C 406.833,215.5 407.167,215.5 407.5,215.5C 373.671,216.498 339.671,216.832 305.5,216.5C 305.173,206.652 305.506,196.986 306.5,187.5 Z"/></g>
<g><path style="opacity:0.953" fill="#738290" d="M 458.5,215.5 C 461.152,215.41 463.485,216.076 465.5,217.5C 462.848,217.59 460.515,216.924 458.5,215.5 Z"/></g>
<g><path style="opacity:0.02" fill="#bdd8db" d="M 661.5,187.5 C 662.494,196.986 662.827,206.652 662.5,216.5C 628.329,216.832 594.329,216.498 560.5,215.5C 594.167,215.5 627.833,215.5 661.5,215.5C 661.5,206.167 661.5,196.833 661.5,187.5 Z"/></g>
<g><path style="opacity:1" fill="#df9d82" d="M 79.5,215.5 C 81.2655,218.123 81.9321,221.123 81.5,224.5C 80.087,221.781 79.4203,218.781 79.5,215.5 Z"/></g>
<g><path style="opacity:0.984" fill="#d88061" d="M 113.5,201.5 C 117.566,212.34 122.232,223.006 127.5,233.5C 119.712,224.323 115.045,213.656 113.5,201.5 Z"/></g>
<g><path style="opacity:0.706" fill="#ffc7ad" d="M 213.5,212.5 C 214.117,212.611 214.617,212.944 215,213.5C 215.667,216.833 215.667,220.167 215,223.5C 214.617,224.056 214.117,224.389 213.5,224.5C 214.833,220.5 214.833,216.5 213.5,212.5 Z"/></g>
<g><path style="opacity:0.984" fill="#df896b" d="M 165.5,218.5 C 166.873,218.343 168.207,218.51 169.5,219C 173.315,222.292 177.315,225.126 181.5,227.5C 175.277,225.99 169.944,222.99 165.5,218.5 Z"/></g>
<g><path style="opacity:0.992" fill="#e69273" d="M 150.5,222.5 C 154.683,224.087 158.35,226.421 161.5,229.5C 158.337,227.754 155.004,226.254 151.5,225C 150.748,224.329 150.414,223.496 150.5,222.5 Z"/></g>
<g><path style="opacity:0.961" fill="#e2a68f" d="M 81.5,224.5 C 83.2798,225.99 83.9465,227.99 83.5,230.5C 82.2616,228.786 81.595,226.786 81.5,224.5 Z"/></g>
<g><path style="opacity:0.953" fill="#e69d83" d="M 108.5,222.5 C 111.917,226.311 112.251,230.311 109.5,234.5C 109.495,230.466 109.162,226.466 108.5,222.5 Z"/></g>
<g><path style="opacity:1" fill="#e69c80" d="M 185.5,228.5 C 190.651,229.212 195.817,229.879 201,230.5C 203.244,229.001 206.411,228.334 210.5,228.5C 207.968,231.074 204.801,232.408 201,232.5C 195.451,232.169 190.284,230.836 185.5,228.5 Z"/></g>
<g><path style="opacity:0.718" fill="#eab69e" d="M 83.5,230.5 C 85.2132,231.635 85.8799,233.302 85.5,235.5C 84.4625,234.07 83.7959,232.403 83.5,230.5 Z"/></g>
<g><path style="opacity:1" fill="#df9779" d="M 128.5,235.5 C 131.179,235.525 132.512,236.858 132.5,239.5C 130.833,238.5 129.5,237.167 128.5,235.5 Z"/></g>
<g><path style="opacity:0.278" fill="#f8d3c2" d="M 88.5,239.5 C 90.0269,239.427 91.0269,240.094 91.5,241.5C 89.9731,241.573 88.9731,240.906 88.5,239.5 Z"/></g>
<g><path style="opacity:0.992" fill="#df8564" d="M 85.5,235.5 C 91.45,239.679 98.1166,241.346 105.5,240.5C 101.008,243.919 96.3412,244.252 91.5,241.5C 91.0269,240.094 90.0269,239.427 88.5,239.5C 86.7376,238.738 85.7376,237.404 85.5,235.5 Z"/></g>
<g><path style="opacity:1" fill="#db8b6a" d="M 132.5,239.5 C 135.794,240.466 138.128,242.466 139.5,245.5C 136.599,244.208 134.266,242.208 132.5,239.5 Z"/></g>
<g><path style="opacity:0.986" fill="#e0805d" d="M 143.5,248.5 C 148.5,248.5 153.5,248.5 158.5,248.5C 156.668,250.894 154.168,251.894 151,251.5C 147.832,251.894 145.332,250.894 143.5,248.5 Z"/></g>
</svg>
