<?xml version="1.0" encoding="UTF-8"?>
<!DOCTYPE svg PUBLIC "-//W3C//DTD SVG 1.1//EN" "http://www.w3.org/Graphics/SVG/1.1/DTD/svg11.dtd">
<svg xmlns="http://www.w3.org/2000/svg" version="1.1" width="798px" height="282px" style="shape-rendering:geometricPrecision; text-rendering:geometricPrecision; image-rendering:optimizeQuality; fill-rule:evenodd; clip-rule:evenodd" xmlns:xlink="http://www.w3.org/1999/xlink">
<g><path style="opacity:0.995" fill="#f193b5" d="M 153.5,30.5 C 139.434,30.102 125.434,30.7687 111.5,32.5C 114.465,31.3745 117.465,30.3745 120.5,29.5C 131.687,27.9953 142.687,28.3286 153.5,30.5 Z"/></g>
<g><path style="opacity:1" fill="#fc4992" d="M 153.5,30.5 C 155.415,30.2155 157.081,30.5489 158.5,31.5C 161.167,32.5 163.833,33.5 166.5,34.5C 170.833,36.0827 175,38.0827 179,40.5C 180.011,39.6634 181.178,39.33 182.5,39.5C 183.287,41.1042 184.62,41.7709 186.5,41.5C 187.514,42.6737 188.847,43.3404 190.5,43.5C 192.153,43.6596 193.486,44.3263 194.5,45.5C 194.973,46.9063 195.973,47.573 197.5,47.5C 197.973,48.9063 198.973,49.573 200.5,49.5C 200.973,50.9063 201.973,51.573 203.5,51.5C 204.048,53.5323 205.381,54.5323 207.5,54.5C 209.754,55.1237 211.421,56.457 212.5,58.5C 212.833,59.5 213.5,60.1667 214.5,60.5C 215.167,60.8333 215.833,61.1667 216.5,61.5C 218.43,65.1002 221.097,68.1002 224.5,70.5C 225.833,71.1667 226.833,72.1667 227.5,73.5C 227.738,75.4044 228.738,76.7377 230.5,77.5C 230.427,79.0269 231.094,80.0269 232.5,80.5C 232.738,82.4044 233.738,83.7377 235.5,84.5C 235.427,86.0269 236.094,87.0269 237.5,87.5C 237.427,89.0269 238.094,90.0269 239.5,90.5C 240.338,90.8417 240.672,91.5084 240.5,92.5C 241.326,95.4848 242.659,98.1515 244.5,100.5C 244.166,103.491 245.166,105.824 247.5,107.5C 247.804,110.522 248.304,113.522 249,116.5C 249.377,117.942 250.21,118.942 251.5,119.5C 252.15,121.435 252.483,123.435 252.5,125.5C 252.667,137.505 252.5,149.505 252,161.5C 250.766,168.223 249.599,174.889 248.5,181.5C 247.111,185.202 245.778,189.035 244.5,193C 240.14,202.421 235.474,211.587 230.5,220.5C 230.262,222.404 229.262,223.738 227.5,224.5C 226.094,224.973 225.427,225.973 225.5,227.5C 220.729,233.61 215.062,238.61 208.5,242.5C 198.024,246.756 187.691,250.756 177.5,254.5C 176.432,255.434 175.099,255.768 173.5,255.5C 157.109,257.045 140.775,256.712 124.5,254.5C 99.3921,248.7 78.8921,235.7 63,215.5C 58.429,209.025 54.929,202.025 52.5,194.5C 47.4748,175.81 46.4748,156.81 49.5,137.5C 50.9034,130.033 53.9034,123.366 58.5,117.5C 64.0653,110.593 70.0653,103.926 76.5,97.5C 83.9153,89.9577 92.9153,85.291 103.5,83.5C 109.003,83.2777 114.503,82.9443 120,82.5C 125.87,82.9271 131.703,83.5937 137.5,84.5C 154.971,89.3137 167.971,99.6471 176.5,115.5C 177.609,120.429 178.776,125.429 180,130.5C 180.423,137.509 180.256,144.509 179.5,151.5C 172.006,177.751 154.673,189.251 127.5,186C 118.591,183.391 111.258,178.557 105.5,171.5C 104.633,167.971 103.3,164.638 101.5,161.5C 100.063,153.38 100.396,145.38 102.5,137.5C 104.124,132.911 107.124,129.577 111.5,127.5C 116.387,125.69 121.387,124.023 126.5,122.5C 131.647,123.704 136.647,125.371 141.5,127.5C 149.54,132.611 152.373,139.945 150,149.5C 149.616,152.06 148.783,154.394 147.5,156.5C 141.958,163.062 134.958,165.229 126.5,163C 116.809,157.927 114.309,150.427 119,140.5C 122.261,136.742 126.428,134.908 131.5,135C 124.807,133.427 119.641,135.594 116,141.5C 112.093,153.123 115.593,161.623 126.5,167C 134.573,169.946 141.573,168.446 147.5,162.5C 159.491,151.357 160.658,139.024 151,125.5C 138.403,112.425 123.903,109.925 107.5,118C 89.2942,130.963 83.7942,148.13 91,169.5C 93.8807,175.868 97.714,181.535 102.5,186.5C 102.539,187.583 102.873,188.583 103.5,189.5C 106.126,190.955 108.626,192.622 111,194.5C 121.886,200.426 133.386,202.093 145.5,199.5C 153.885,197.703 161.885,194.703 169.5,190.5C 177.948,186.051 183.948,179.384 187.5,170.5C 203.403,129.748 192.737,98.0817 155.5,75.5C 153.52,73.5486 151.187,72.0486 148.5,71C 144.156,69.6627 139.822,68.3293 135.5,67C 124.5,66.3333 113.5,66.3333 102.5,67C 100.111,67.7388 98.1112,68.9054 96.5,70.5C 66.3005,80.6987 46.6338,101.032 37.5,131.5C 36.5,131.5 35.5,131.5 34.5,131.5C 33.525,139.118 32.8584,146.785 32.5,154.5C 32.5007,159.678 32.834,164.678 33.5,169.5C 41.7157,216.049 68.3824,246.383 113.5,260.5C 115.932,261.958 118.599,263.125 121.5,264C 119.5,264.167 117.5,264.333 115.5,264.5C 109.883,263.377 104.216,262.377 98.5,261.5C 97.5,261.5 96.5,261.5 95.5,261.5C 95.1667,261.5 94.8333,261.5 94.5,261.5C 93.0351,260.263 91.3684,259.263 89.5,258.5C 87.8984,256.926 85.8984,256.259 83.5,256.5C 82.4863,255.326 81.153,254.66 79.5,254.5C 78.5084,254.672 77.8417,254.338 77.5,253.5C 75.1269,249.977 71.7936,247.977 67.5,247.5C 66.7377,245.738 65.4044,244.738 63.5,244.5C 62.4154,242.413 60.7488,241.08 58.5,240.5C 56.7607,237.757 54.4274,235.757 51.5,234.5C 49.5407,230.874 46.874,227.874 43.5,225.5C 42.8333,225.5 42.5,225.167 42.5,224.5C 42.2624,222.596 41.2624,221.262 39.5,220.5C 38.962,218.883 38.6287,217.216 38.5,215.5C 37.5,215.5 36.5,215.5 35.5,215.5C 34.3099,210.322 32.6432,205.322 30.5,200.5C 29.5,200.5 28.5,200.5 27.5,200.5C 27.3276,195.051 25.6609,190.384 22.5,186.5C 21.8698,184.25 20.8698,182.25 19.5,180.5C 19.5,179.833 19.5,179.167 19.5,178.5C 20.1328,172.984 19.1328,167.984 16.5,163.5C 15.0375,150.889 15.3708,138.222 17.5,125.5C 19.0739,123.898 19.7406,121.898 19.5,119.5C 19.5,118.833 19.5,118.167 19.5,117.5C 20.4584,117.047 21.2917,116.381 22,115.5C 22.5482,112.127 23.8816,109.127 26,106.5C 26.696,103.522 27.196,100.522 27.5,97.5C 28.3764,97.6309 29.0431,97.2975 29.5,96.5C 30.8469,93.4413 32.1802,90.4413 33.5,87.5C 33.6596,85.847 34.3263,84.5137 35.5,83.5C 36.9063,83.0269 37.573,82.0269 37.5,80.5C 39.914,79.0892 41.5806,77.0892 42.5,74.5C 46.2482,71.7564 49.2482,68.423 51.5,64.5C 56.4546,60.882 61.1212,56.882 65.5,52.5C 67.4044,52.2624 68.7377,51.2624 69.5,49.5C 71.0269,49.573 72.0269,48.9063 72.5,47.5C 79.8874,45.9751 86.2208,42.6417 91.5,37.5C 91.8333,37.5 92.1667,37.5 92.5,37.5C 98.6796,35.2174 105.013,33.5507 111.5,32.5C 125.434,30.7687 139.434,30.102 153.5,30.5 Z"/></g>
<g><path style="opacity:0.155" fill="#ffe3f5" d="M 158.5,31.5 C 162.57,31.4318 166.237,32.4318 169.5,34.5C 168.5,34.5 167.5,34.5 166.5,34.5C 163.833,33.5 161.167,32.5 158.5,31.5 Z"/></g>
<g><path style="opacity:0.969" fill="#fecee2" d="M 120.5,29.5 C 117.465,30.3745 114.465,31.3745 111.5,32.5C 105.013,33.5507 98.6796,35.2174 92.5,37.5C 101.085,32.7055 110.418,30.0388 120.5,29.5 Z"/></g>
<g><path style="opacity:1" fill="#ef8cb0" d="M 166.5,34.5 C 167.5,34.5 168.5,34.5 169.5,34.5C 174.223,35.3697 178.556,37.0363 182.5,39.5C 181.178,39.33 180.011,39.6634 179,40.5C 175,38.0827 170.833,36.0827 166.5,34.5 Z"/></g>
<g><path style="opacity:0.698" fill="#fbbed7" d="M 182.5,39.5 C 184.153,39.6596 185.486,40.3263 186.5,41.5C 184.62,41.7709 183.287,41.1042 182.5,39.5 Z"/></g>
<g><path style="opacity:0.176" fill="#ffd7ea" d="M 186.5,41.5 C 188.38,41.2291 189.713,41.8958 190.5,43.5C 188.847,43.3404 187.514,42.6737 186.5,41.5 Z"/></g>
<g><path style="opacity:0.808" fill="#fccee3" d="M 82.5,41.5 C 82.0269,42.9063 81.0269,43.573 79.5,43.5C 79.9731,42.0937 80.9731,41.427 82.5,41.5 Z"/></g>
<g><path style="opacity:1" fill="#eb729e" d="M 91.5,37.5 C 86.2208,42.6417 79.8874,45.9751 72.5,47.5C 74.3356,45.412 76.6689,44.0787 79.5,43.5C 81.0269,43.573 82.0269,42.9063 82.5,41.5C 85.1268,39.3993 88.1268,38.0659 91.5,37.5 Z"/></g>
<g><path style="opacity:0.043" fill="#ffe0e9" d="M 194.5,45.5 C 196.027,45.427 197.027,46.0937 197.5,47.5C 195.973,47.573 194.973,46.9063 194.5,45.5 Z"/></g>
<g><path style="opacity:0.745" fill="#fdc6dd" d="M 72.5,47.5 C 72.0269,48.9063 71.0269,49.573 69.5,49.5C 69.9731,48.0937 70.9731,47.427 72.5,47.5 Z"/></g>
<g><path style="opacity:0.118" fill="#fed7e8" d="M 197.5,47.5 C 199.027,47.427 200.027,48.0937 200.5,49.5C 198.973,49.573 197.973,48.9063 197.5,47.5 Z"/></g>
<g><path style="opacity:0.835" fill="#f8b4d0" d="M 69.5,49.5 C 68.7377,51.2624 67.4044,52.2624 65.5,52.5C 66.2623,50.7376 67.5956,49.7376 69.5,49.5 Z"/></g>
<g><path style="opacity:0.114" fill="#fed6e7" d="M 200.5,49.5 C 202.027,49.427 203.027,50.0937 203.5,51.5C 201.973,51.573 200.973,50.9063 200.5,49.5 Z"/></g>
<g><path style="opacity:0.969" fill="#f6a5c2" d="M 203.5,51.5 C 205.404,51.7376 206.738,52.7376 207.5,54.5C 205.381,54.5323 204.048,53.5323 203.5,51.5 Z"/></g>
<g><path style="opacity:0.004" fill="#ffecf9" d="M 212.5,58.5 C 213.833,58.5 214.5,59.1667 214.5,60.5C 213.5,60.1667 212.833,59.5 212.5,58.5 Z"/></g>
<g><path style="opacity:0.976" fill="#f6a7c5" d="M 65.5,52.5 C 61.1212,56.882 56.4546,60.882 51.5,64.5C 55.2328,59.4356 59.8995,55.4356 65.5,52.5 Z"/></g>
<g><path style="opacity:0.749" fill="#ffccdf" d="M 216.5,61.5 C 219.903,63.8998 222.57,66.8998 224.5,70.5C 221.097,68.1002 218.43,65.1002 216.5,61.5 Z"/></g>
<g><path style="opacity:0.951" fill="#c4c5c3" d="M 607.5,63.5 C 605.784,63.6287 604.117,63.962 602.5,64.5C 604.111,61.8374 606.111,61.3374 608.5,63C 608.272,63.3988 607.938,63.5654 607.5,63.5 Z"/></g>
<g><path style="opacity:0.998" fill="#3f4b50" d="M 352.5,231.5 C 348.267,232.794 343.934,232.794 339.5,231.5C 337.67,183.844 336.837,135.844 337,87.5C 336.283,88.0442 335.783,88.7109 335.5,89.5C 333.142,91.6782 330.475,93.3449 327.5,94.5C 325.272,94.7769 323.605,95.7769 322.5,97.5C 320.967,99.2451 318.967,100.245 316.5,100.5C 312.952,101.13 309.619,102.13 306.5,103.5C 304.312,104.623 301.979,104.623 299.5,103.5C 297.877,99.7102 296.544,95.7102 295.5,91.5C 299.978,90.2683 304.312,88.9349 308.5,87.5C 314.461,84.5194 320.461,81.5194 326.5,78.5C 328.027,78.573 329.027,77.9063 329.5,76.5C 331.027,76.573 332.027,75.9063 332.5,74.5C 333.899,73.1103 335.566,72.1103 337.5,71.5C 339.404,71.2624 340.738,70.2624 341.5,68.5C 343.027,68.573 344.027,67.9063 344.5,66.5C 346.027,66.573 347.027,65.9063 347.5,64.5C 349.117,63.962 350.784,63.6287 352.5,63.5C 352.5,119.5 352.5,175.5 352.5,231.5 Z"/></g>
<g><path style="opacity:0.997" fill="#465257" d="M 607.5,63.5 C 607.533,119.455 607.2,175.455 606.5,231.5C 601.524,232.638 596.524,232.638 591.5,231.5C 591.17,183.928 591.503,136.428 592.5,89C 589.18,89.2646 586.513,90.9312 584.5,94C 574.885,100.705 564.219,103.872 552.5,103.5C 551.915,99.4088 550.915,95.4088 549.5,91.5C 557.651,89.6129 565.651,86.7796 573.5,83C 580.335,78.9779 587.001,74.8112 593.5,70.5C 595.027,70.573 596.027,69.9063 596.5,68.5C 597.29,67.5987 598.29,66.9321 599.5,66.5C 601.027,66.573 602.027,65.9063 602.5,64.5C 604.117,63.962 605.784,63.6287 607.5,63.5 Z"/></g>
<g><path style="opacity:0.961" fill="#bbbebe" d="M 347.5,64.5 C 347.027,65.9063 346.027,66.573 344.5,66.5C 344.973,65.0937 345.973,64.427 347.5,64.5 Z"/></g>
<g><path style="opacity:0.718" fill="#b2b5b5" d="M 602.5,64.5 C 602.027,65.9063 601.027,66.573 599.5,66.5C 599.973,65.0937 600.973,64.427 602.5,64.5 Z"/></g>
<g><path style="opacity:1" fill="#e75d92" d="M 155.5,75.5 C 136.379,66.9888 116.712,65.3221 96.5,70.5C 98.1112,68.9054 100.111,67.7388 102.5,67C 113.5,66.3333 124.5,66.3333 135.5,67C 139.822,68.3293 144.156,69.6627 148.5,71C 151.187,72.0486 153.52,73.5486 155.5,75.5 Z"/></g>
<g><path style="opacity:0.994" fill="#686e6f" d="M 473.5,67.5 C 464.167,67.5 454.833,67.5 445.5,67.5C 454.828,64.9272 464.162,64.9272 473.5,67.5 Z"/></g>
<g><path style="opacity:0.976" fill="#b3b6b6" d="M 344.5,66.5 C 344.027,67.9063 343.027,68.573 341.5,68.5C 341.973,67.0937 342.973,66.427 344.5,66.5 Z"/></g>
<g><path style="opacity:0.997" fill="#455156" d="M 445.5,67.5 C 454.833,67.5 464.167,67.5 473.5,67.5C 482.263,68.5246 489.93,71.8579 496.5,77.5C 496.973,78.9063 497.973,79.573 499.5,79.5C 503.876,82.8744 507.542,86.8744 510.5,91.5C 510.427,93.0269 511.094,94.0269 512.5,94.5C 512.427,96.0269 513.094,97.0269 514.5,97.5C 514.427,99.0269 515.094,100.027 516.5,100.5C 519.964,107.112 522.631,114.112 524.5,121.5C 524.41,124.152 525.076,126.485 526.5,128.5C 532.155,154.43 528.655,179.096 516,202.5C 515.051,204.093 513.885,205.426 512.5,206.5C 511.094,206.973 510.427,207.973 510.5,209.5C 506.456,215.211 501.456,219.878 495.5,223.5C 493.973,223.427 492.973,224.094 492.5,225.5C 476.193,234.762 458.86,236.929 440.5,232C 433.71,230.107 427.71,226.941 422.5,222.5C 421.738,220.738 420.404,219.738 418.5,219.5C 412.707,214.712 408.04,209.045 404.5,202.5C 404.611,201.883 404.944,201.383 405.5,201C 404.167,198.809 402.5,196.976 400.5,195.5C 399.662,195.158 399.328,194.492 399.5,193.5C 399.598,191.447 398.931,189.78 397.5,188.5C 388.239,163.075 388.239,137.742 397.5,112.5C 399.074,110.898 399.741,108.898 399.5,106.5C 399.992,104.181 400.992,102.181 402.5,100.5C 404.369,98.9663 405.702,96.9663 406.5,94.5C 407.906,94.0269 408.573,93.0269 408.5,91.5C 408.5,90.8333 408.833,90.5 409.5,90.5C 410.906,90.0269 411.573,89.0269 411.5,87.5C 413.167,85.1667 415.167,83.1667 417.5,81.5C 419.404,81.2624 420.738,80.2624 421.5,78.5C 428.188,72.1587 436.188,68.492 445.5,67.5 Z M 486.5,88.5 C 486.973,89.9063 487.973,90.573 489.5,90.5C 496.783,97.4345 502.45,105.434 506.5,114.5C 506.259,116.898 506.926,118.898 508.5,120.5C 513.006,137.648 513.672,154.981 510.5,172.5C 509.076,174.515 508.41,176.848 508.5,179.5C 507.069,180.78 506.402,182.447 506.5,184.5C 504.992,186.181 503.992,188.181 503.5,190.5C 490.057,216.384 469.39,224.884 441.5,216C 424.846,206.868 414.346,193.035 410,174.5C 405.503,156.795 405.67,139.128 410.5,121.5C 412.074,119.898 412.741,117.898 412.5,115.5C 418.449,101.712 428.116,91.2119 441.5,84C 457.292,78.3166 472.292,79.8166 486.5,88.5 Z"/></g>
<g><path style="opacity:0.997" fill="#445055" d="M 743.5,72.5 C 744.344,74.7593 746.011,75.7593 748.5,75.5C 760.448,83.4527 769.114,94.1194 774.5,107.5C 775.083,110.947 776.416,113.947 778.5,116.5C 784.727,138.051 785.06,159.718 779.5,181.5C 776.88,185.343 775.213,189.676 774.5,194.5C 774.672,195.492 774.338,196.158 773.5,196.5C 771.087,197.68 770.087,199.68 770.5,202.5C 767.848,206.482 764.848,210.149 761.5,213.5C 760.094,213.973 759.427,214.973 759.5,216.5C 739.77,234.075 717.103,238.908 691.5,231C 680.532,225.853 671.199,218.687 663.5,209.5C 663.573,207.973 662.906,206.973 661.5,206.5C 657.46,201.086 654.46,195.086 652.5,188.5C 652.405,186.214 651.738,184.214 650.5,182.5C 650.598,180.447 649.931,178.78 648.5,177.5C 648.5,176.833 648.5,176.167 648.5,175.5C 646.806,164.915 646.14,154.249 646.5,143.5C 646.5,140.167 646.5,136.833 646.5,133.5C 646.54,130.012 647.207,126.679 648.5,123.5C 650.277,120.495 651.277,117.162 651.5,113.5C 653.932,105.766 657.599,98.7664 662.5,92.5C 664.262,91.7377 665.262,90.4044 665.5,88.5C 682.144,69.1174 703.144,61.9508 728.5,67C 733.998,67.7798 738.998,69.6132 743.5,72.5 Z M 765.5,129.5 C 765.608,134.71 766.275,139.71 767.5,144.5C 767.269,154.849 765.936,165.016 763.5,175C 763.833,175.333 764.167,175.667 764.5,176C 761.773,184.286 758.106,192.12 753.5,199.5C 752.094,199.973 751.427,200.973 751.5,202.5C 736.247,219.189 717.914,223.689 696.5,216C 682.178,208.901 672.345,197.735 667,182.5C 659.022,158.494 659.856,134.827 669.5,111.5C 671.008,109.819 672.008,107.819 672.5,105.5C 688.651,81.2059 710.318,74.7059 737.5,86C 753.017,96.537 762.35,111.037 765.5,129.5 Z"/></g>
<g><path style="opacity:1" fill="#fff6f5" d="M 155.5,75.5 C 192.737,98.0817 203.403,129.748 187.5,170.5C 182.582,178.087 176.582,184.754 169.5,190.5C 161.885,194.703 153.885,197.703 145.5,199.5C 129.165,201.385 114.832,197.052 102.5,186.5C 97.714,181.535 93.8807,175.868 91,169.5C 83.7942,148.13 89.2942,130.963 107.5,118C 123.903,109.925 138.403,112.425 151,125.5C 160.658,139.024 159.491,151.357 147.5,162.5C 146.325,162.719 145.325,162.386 144.5,161.5C 145.952,160.06 146.952,158.394 147.5,156.5C 148.783,154.394 149.616,152.06 150,149.5C 152.373,139.945 149.54,132.611 141.5,127.5C 133.68,121.014 125.014,119.847 115.5,124C 113.907,124.949 112.574,126.115 111.5,127.5C 107.124,129.577 104.124,132.911 102.5,137.5C 100.871,139.858 99.7048,142.524 99,145.5C 96.8314,155.453 98.9981,164.12 105.5,171.5C 111.258,178.557 118.591,183.391 127.5,186C 154.673,189.251 172.006,177.751 179.5,151.5C 180.29,150.391 180.79,149.058 181,147.5C 181.667,141.5 181.667,135.5 181,129.5C 180.57,124.38 179.07,119.713 176.5,115.5C 167.971,99.6471 154.971,89.3137 137.5,84.5C 131.346,82.1218 124.846,81.1218 118,81.5C 112.898,81.2933 108.065,81.96 103.5,83.5C 92.9153,85.291 83.9153,89.9577 76.5,97.5C 68.7346,102.598 62.7346,109.264 58.5,117.5C 53.9034,123.366 50.9034,130.033 49.5,137.5C 46.6901,144.269 45.3567,151.436 45.5,159C 45.1195,171.519 47.4528,183.352 52.5,194.5C 54.929,202.025 58.429,209.025 63,215.5C 78.8921,235.7 99.3921,248.7 124.5,254.5C 127.628,255.632 130.962,256.465 134.5,257C 146.167,257.667 157.833,257.667 169.5,257C 171.058,256.79 172.391,256.29 173.5,255.5C 175.099,255.768 176.432,255.434 177.5,254.5C 181.67,254.667 185.67,254 189.5,252.5C 184.962,257.608 179.296,260.941 172.5,262.5C 171.903,261.861 171.07,261.528 170,261.5C 166.323,261.972 162.823,262.638 159.5,263.5C 144.035,264.141 128.702,263.141 113.5,260.5C 68.3824,246.383 41.7157,216.049 33.5,169.5C 32.5212,156.511 33.8545,143.844 37.5,131.5C 46.6338,101.032 66.3005,80.6987 96.5,70.5C 116.712,65.3221 136.379,66.9888 155.5,75.5 Z"/></g>
<g><path style="opacity:0.992" fill="#f3a0c0" d="M 51.5,64.5 C 49.2482,68.423 46.2482,71.7564 42.5,74.5C 44.8169,70.5182 47.8169,67.1849 51.5,64.5 Z"/></g>
<g><path style="opacity:0.976" fill="#acb0b0" d="M 341.5,68.5 C 340.738,70.2624 339.404,71.2624 337.5,71.5C 338.262,69.7376 339.596,68.7376 341.5,68.5 Z"/></g>
<g><path style="opacity:0.525" fill="#afb3b4" d="M 596.5,68.5 C 596.027,69.9063 595.027,70.573 593.5,70.5C 593.973,69.0937 594.973,68.427 596.5,68.5 Z"/></g>
<g><path style="opacity:0.863" fill="#ffc8de" d="M 227.5,73.5 C 229.262,74.2623 230.262,75.5956 230.5,77.5C 228.738,76.7377 227.738,75.4044 227.5,73.5 Z"/></g>
<g><path style="opacity:0.992" fill="#8d9294" d="M 743.5,72.5 C 745.434,73.1103 747.101,74.1103 748.5,75.5C 746.011,75.7593 744.344,74.7593 743.5,72.5 Z"/></g>
<g><path style="opacity:0.984" fill="#b3b6b6" d="M 332.5,74.5 C 332.027,75.9063 331.027,76.573 329.5,76.5C 329.973,75.0937 330.973,74.427 332.5,74.5 Z"/></g>
<g><path style="opacity:0.969" fill="#b1b4b4" d="M 329.5,76.5 C 329.027,77.9063 328.027,78.573 326.5,78.5C 326.973,77.0937 327.973,76.427 329.5,76.5 Z"/></g>
<g><path style="opacity:0.004" fill="#dbdddd" d="M 496.5,77.5 C 498.027,77.427 499.027,78.0937 499.5,79.5C 497.973,79.573 496.973,78.9063 496.5,77.5 Z"/></g>
<g><path style="opacity:0.62" fill="#fbcbe0" d="M 42.5,74.5 C 41.5806,77.0892 39.914,79.0892 37.5,80.5C 38.4194,77.9108 40.086,75.9108 42.5,74.5 Z"/></g>
<g><path style="opacity:0.969" fill="#ffbdd7" d="M 230.5,77.5 C 231.906,77.9731 232.573,78.9731 232.5,80.5C 231.094,80.0269 230.427,79.0269 230.5,77.5 Z"/></g>
<g><path style="opacity:0.427" fill="#adb2af" d="M 421.5,78.5 C 420.738,80.2624 419.404,81.2624 417.5,81.5C 418.262,79.7376 419.596,78.7376 421.5,78.5 Z"/></g>
<g><path style="opacity:1" fill="#e46394" d="M 137.5,84.5 C 131.703,83.5937 125.87,82.9271 120,82.5C 114.503,82.9443 109.003,83.2777 103.5,83.5C 108.065,81.96 112.898,81.2933 118,81.5C 124.846,81.1218 131.346,82.1218 137.5,84.5 Z"/></g>
<g><path style="opacity:0.255" fill="#fed7eb" d="M 37.5,80.5 C 37.573,82.0269 36.9063,83.0269 35.5,83.5C 35.427,81.9731 36.0937,80.9731 37.5,80.5 Z"/></g>
<g><path style="opacity:0.969" fill="#f7b2cc" d="M 232.5,80.5 C 234.262,81.2623 235.262,82.5956 235.5,84.5C 233.738,83.7377 232.738,82.4044 232.5,80.5 Z"/></g>
<g><path style="opacity:0.631" fill="#fed6ea" d="M 235.5,84.5 C 236.906,84.9731 237.573,85.9731 237.5,87.5C 236.094,87.0269 235.427,86.0269 235.5,84.5 Z"/></g>
<g><path style="opacity:0.671" fill="#abafae" d="M 411.5,87.5 C 411.573,89.0269 410.906,90.0269 409.5,90.5C 409.427,88.9731 410.094,87.9731 411.5,87.5 Z"/></g>
<g><path style="opacity:0.38" fill="#b4b7b7" d="M 486.5,88.5 C 488.027,88.427 489.027,89.0937 489.5,90.5C 487.973,90.573 486.973,89.9063 486.5,88.5 Z"/></g>
<g><path style="opacity:0.369" fill="#fed6eb" d="M 237.5,87.5 C 238.906,87.9731 239.573,88.9731 239.5,90.5C 238.094,90.0269 237.427,89.0269 237.5,87.5 Z"/></g>
<g><path style="opacity:0.992" fill="#d0d1d1" d="M 308.5,87.5 C 304.312,88.9349 299.978,90.2683 295.5,91.5C 296.544,95.7102 297.877,99.7102 299.5,103.5C 298.698,104.885 298.031,104.718 297.5,103C 296.289,98.5988 294.956,94.2655 293.5,90C 298.319,88.5529 303.319,87.7196 308.5,87.5 Z"/></g>
<g><path style="opacity:0.482" fill="#aaafad" d="M 665.5,88.5 C 665.262,90.4044 664.262,91.7377 662.5,92.5C 662.738,90.5956 663.738,89.2623 665.5,88.5 Z"/></g>
<g><path style="opacity:0.357" fill="#acb0b1" d="M 408.5,91.5 C 408.573,93.0269 407.906,94.0269 406.5,94.5C 406.427,92.9731 407.094,91.9731 408.5,91.5 Z"/></g>
<g><path style="opacity:0.133" fill="#b8baba" d="M 510.5,91.5 C 511.906,91.9731 512.573,92.9731 512.5,94.5C 511.094,94.0269 510.427,93.0269 510.5,91.5 Z"/></g>
<g><path style="opacity:0.094" fill="#ffd7e8" d="M 240.5,92.5 C 242.873,94.5792 244.206,97.2459 244.5,100.5C 242.659,98.1515 241.326,95.4848 240.5,92.5 Z"/></g>
<g><path style="opacity:0.992" fill="#8f9395" d="M 327.5,94.5 C 326.514,96.4077 324.848,97.4077 322.5,97.5C 323.605,95.7769 325.272,94.7769 327.5,94.5 Z"/></g>
<g><path style="opacity:1" fill="#ed8db0" d="M 33.5,87.5 C 32.1802,90.4413 30.8469,93.4413 29.5,96.5C 29.0431,97.2975 28.3764,97.6309 27.5,97.5C 28.4977,93.4945 30.4977,90.1612 33.5,87.5 Z"/></g>
<g><path style="opacity:0.137" fill="#b5baba" d="M 512.5,94.5 C 513.906,94.9731 514.573,95.9731 514.5,97.5C 513.094,97.0269 512.427,96.0269 512.5,94.5 Z"/></g>
<g><path style="opacity:1" fill="#8d9394" d="M 406.5,94.5 C 405.702,96.9663 404.369,98.9663 402.5,100.5C 402.845,97.8021 404.178,95.8021 406.5,94.5 Z"/></g>
<g><path style="opacity:0.024" fill="#b7b8b9" d="M 514.5,97.5 C 515.906,97.9731 516.573,98.9731 516.5,100.5C 515.094,100.027 514.427,99.0269 514.5,97.5 Z"/></g>
<g><path style="opacity:0.02" fill="#eceeed" d="M 316.5,100.5 C 313.619,102.68 310.286,103.68 306.5,103.5C 309.619,102.13 312.952,101.13 316.5,100.5 Z"/></g>
<g><path style="opacity:1" fill="#f4a3c1" d="M 244.5,100.5 C 246.065,102.509 247.065,104.843 247.5,107.5C 245.166,105.824 244.166,103.491 244.5,100.5 Z"/></g>
<g><path style="opacity:1" fill="#ec82a9" d="M 27.5,97.5 C 27.196,100.522 26.696,103.522 26,106.5C 23.8816,109.127 22.5482,112.127 22,115.5C 21.2917,116.381 20.4584,117.047 19.5,117.5C 21.2055,110.37 23.8722,103.703 27.5,97.5 Z"/></g>
<g><path style="opacity:0.992" fill="#939899" d="M 672.5,105.5 C 672.008,107.819 671.008,109.819 669.5,111.5C 669.087,108.68 670.087,106.68 672.5,105.5 Z"/></g>
<g><path style="opacity:1" fill="#e66394" d="M 76.5,97.5 C 70.0653,103.926 64.0653,110.593 58.5,117.5C 62.7346,109.264 68.7346,102.598 76.5,97.5 Z"/></g>
<g><path style="opacity:0.025" fill="#d2d8d3" d="M 774.5,107.5 C 776.584,110.053 777.917,113.053 778.5,116.5C 776.416,113.947 775.083,110.947 774.5,107.5 Z"/></g>
<g><path style="opacity:1" fill="#999e9f" d="M 399.5,106.5 C 399.741,108.898 399.074,110.898 397.5,112.5C 397.259,110.102 397.926,108.102 399.5,106.5 Z"/></g>
<g><path style="opacity:0.412" fill="#b7baba" d="M 651.5,113.5 C 651.277,117.162 650.277,120.495 648.5,123.5C 648.723,119.838 649.723,116.505 651.5,113.5 Z"/></g>
<g><path style="opacity:1" fill="#f3a8c4" d="M 247.5,107.5 C 249.405,111.216 250.739,115.216 251.5,119.5C 250.21,118.942 249.377,117.942 249,116.5C 248.304,113.522 247.804,110.522 247.5,107.5 Z"/></g>
<g><path style="opacity:0.006" fill="#d4d8d8" d="M 412.5,115.5 C 412.741,117.898 412.074,119.898 410.5,121.5C 410.595,119.214 411.262,117.214 412.5,115.5 Z"/></g>
<g><path style="opacity:0.008" fill="#d5d8d8" d="M 506.5,114.5 C 507.738,116.214 508.405,118.214 508.5,120.5C 506.926,118.898 506.259,116.898 506.5,114.5 Z"/></g>
<g><path style="opacity:1" fill="#e76596" d="M 176.5,115.5 C 179.07,119.713 180.57,124.38 181,129.5C 181.667,135.5 181.667,141.5 181,147.5C 180.79,149.058 180.29,150.391 179.5,151.5C 180.256,144.509 180.423,137.509 180,130.5C 178.776,125.429 177.609,120.429 176.5,115.5 Z"/></g>
<g><path style="opacity:0.937" fill="#f6bfd3" d="M 19.5,119.5 C 19.7406,121.898 19.0739,123.898 17.5,125.5C 17.2594,123.102 17.9261,121.102 19.5,119.5 Z"/></g>
<g><path style="opacity:1" fill="#ea6597" d="M 141.5,127.5 C 136.647,125.371 131.647,123.704 126.5,122.5C 121.387,124.023 116.387,125.69 111.5,127.5C 112.574,126.115 113.907,124.949 115.5,124C 125.014,119.847 133.68,121.014 141.5,127.5 Z"/></g>
<g><path style="opacity:0.333" fill="#afb3b2" d="M 524.5,121.5 C 525.924,123.515 526.59,125.848 526.5,128.5C 525.076,126.485 524.41,124.152 524.5,121.5 Z"/></g>
<g><path style="opacity:0.07" fill="#fbfcfb" d="M 352.5,231.5 C 352.5,175.5 352.5,119.5 352.5,63.5C 350.784,63.6287 349.117,63.962 347.5,64.5C 348.868,62.221 350.702,61.5543 353,62.5C 353.832,119.001 353.665,175.335 352.5,231.5 Z"/></g>
<g><path style="opacity:1" fill="#eb699a" d="M 37.5,131.5 C 33.8545,143.844 32.5212,156.511 33.5,169.5C 32.834,164.678 32.5007,159.678 32.5,154.5C 32.8584,146.785 33.525,139.118 34.5,131.5C 35.5,131.5 36.5,131.5 37.5,131.5 Z"/></g>
<g><path style="opacity:0.049" fill="#d2d6d6" d="M 765.5,129.5 C 767.145,134.234 767.811,139.234 767.5,144.5C 766.275,139.71 765.608,134.71 765.5,129.5 Z"/></g>
<g><path style="opacity:0.041" fill="#f2f3f3" d="M 646.5,133.5 C 646.5,136.833 646.5,140.167 646.5,143.5C 645.511,148.975 645.178,154.642 645.5,160.5C 644.835,157.351 644.502,154.018 644.5,150.5C 644.402,144.599 645.069,138.933 646.5,133.5 Z"/></g>
<g><path style="opacity:0.998" fill="#ed74a0" d="M 252.5,125.5 C 253.302,126.952 253.802,128.618 254,130.5C 254.826,142.008 254.659,153.341 253.5,164.5C 252.419,167.627 251.753,170.96 251.5,174.5C 250.101,177.225 249.101,179.559 248.5,181.5C 249.599,174.889 250.766,168.223 252,161.5C 252.5,149.505 252.667,137.505 252.5,125.5 Z"/></g>
<g><path style="opacity:1" fill="#e45c90" d="M 102.5,137.5 C 100.396,145.38 100.063,153.38 101.5,161.5C 103.3,164.638 104.633,167.971 105.5,171.5C 98.9981,164.12 96.8314,155.453 99,145.5C 99.7048,142.524 100.871,139.858 102.5,137.5 Z"/></g>
<g><path style="opacity:0.581" fill="#cdcecc" d="M 339.5,231.5 C 338.791,232.404 337.791,232.737 336.5,232.5C 336.832,184.664 336.499,136.997 335.5,89.5C 335.783,88.7109 336.283,88.0442 337,87.5C 336.837,135.844 337.67,183.844 339.5,231.5 Z"/></g>
<g><path style="opacity:1" fill="#ffe7f3" d="M 147.5,156.5 C 146.952,158.394 145.952,160.06 144.5,161.5C 145.325,162.386 146.325,162.719 147.5,162.5C 141.573,168.446 134.573,169.946 126.5,167C 115.593,161.623 112.093,153.123 116,141.5C 119.641,135.594 124.807,133.427 131.5,135C 126.428,134.908 122.261,136.742 119,140.5C 114.309,150.427 116.809,157.927 126.5,163C 134.958,165.229 141.958,163.062 147.5,156.5 Z"/></g>
<g><path style="opacity:0.937" fill="#fecfe4" d="M 253.5,164.5 C 253.841,168.16 253.175,171.493 251.5,174.5C 251.753,170.96 252.419,167.627 253.5,164.5 Z"/></g>
<g><path style="opacity:0.118" fill="#c6c9c9" d="M 646.5,143.5 C 646.14,154.249 646.806,164.915 648.5,175.5C 646.549,170.816 645.549,165.816 645.5,160.5C 645.178,154.642 645.511,148.975 646.5,143.5 Z"/></g>
<g><path style="opacity:0.984" fill="#f49bba" d="M 16.5,163.5 C 19.1328,167.984 20.1328,172.984 19.5,178.5C 17.3694,173.848 16.3694,168.848 16.5,163.5 Z"/></g>
<g><path style="opacity:1" fill="#ec5b93" d="M 49.5,137.5 C 46.4748,156.81 47.4748,175.81 52.5,194.5C 47.4528,183.352 45.1195,171.519 45.5,159C 45.3567,151.436 46.6901,144.269 49.5,137.5 Z"/></g>
<g><path style="opacity:0.745" fill="#949899" d="M 510.5,172.5 C 510.59,175.152 509.924,177.485 508.5,179.5C 508.41,176.848 509.076,174.515 510.5,172.5 Z"/></g>
<g><path style="opacity:0.275" fill="#bcbebe" d="M 648.5,177.5 C 649.931,178.78 650.598,180.447 650.5,182.5C 649.069,181.22 648.402,179.553 648.5,177.5 Z"/></g>
<g><path style="opacity:1" fill="#e55f92" d="M 187.5,170.5 C 183.948,179.384 177.948,186.051 169.5,190.5C 176.582,184.754 182.582,178.087 187.5,170.5 Z"/></g>
<g><path style="opacity:0.537" fill="#ffd1e5" d="M 19.5,180.5 C 20.8698,182.25 21.8698,184.25 22.5,186.5C 22.5,187.167 22.5,187.833 22.5,188.5C 20.7329,186.208 19.7329,183.542 19.5,180.5 Z"/></g>
<g><path style="opacity:0.11" fill="#cbcdca" d="M 779.5,181.5 C 778.401,186.144 776.734,190.478 774.5,194.5C 775.213,189.676 776.88,185.343 779.5,181.5 Z"/></g>
<g><path style="opacity:0.047" fill="#cbcece" d="M 650.5,182.5 C 651.738,184.214 652.405,186.214 652.5,188.5C 650.926,186.898 650.259,184.898 650.5,182.5 Z"/></g>
<g><path style="opacity:0.969" fill="#979c9d" d="M 506.5,184.5 C 506.913,187.32 505.913,189.32 503.5,190.5C 503.992,188.181 504.992,186.181 506.5,184.5 Z"/></g>
<g><path style="opacity:1" fill="#e75a90" d="M 102.5,186.5 C 114.832,197.052 129.165,201.385 145.5,199.5C 133.386,202.093 121.886,200.426 111,194.5C 108.626,192.622 106.126,190.955 103.5,189.5C 102.873,188.583 102.539,187.583 102.5,186.5 Z"/></g>
<g><path style="opacity:0.063" fill="#c4c6c6" d="M 397.5,188.5 C 398.931,189.78 399.598,191.447 399.5,193.5C 398.069,192.22 397.402,190.553 397.5,188.5 Z"/></g>
<g><path style="opacity:0.984" fill="#ef89ad" d="M 22.5,186.5 C 25.6609,190.384 27.3276,195.051 27.5,200.5C 24.688,197.087 23.0213,193.087 22.5,188.5C 22.5,187.833 22.5,187.167 22.5,186.5 Z"/></g>
<g><path style="opacity:1" fill="#8e9395" d="M 400.5,195.5 C 402.5,196.976 404.167,198.809 405.5,201C 404.944,201.383 404.611,201.883 404.5,202.5C 402.412,200.664 401.079,198.331 400.5,195.5 Z"/></g>
<g><path style="opacity:0.951" fill="#9da1a2" d="M 773.5,196.5 C 773.008,198.819 772.008,200.819 770.5,202.5C 770.087,199.68 771.087,197.68 773.5,196.5 Z"/></g>
<g><path style="opacity:0.031" fill="#fed9f0" d="M 243.5,199.5 C 243.573,201.027 242.906,202.027 241.5,202.5C 241.427,200.973 242.094,199.973 243.5,199.5 Z"/></g>
<g><path style="opacity:0.161" fill="#acb2b1" d="M 753.5,199.5 C 753.573,201.027 752.906,202.027 751.5,202.5C 751.427,200.973 752.094,199.973 753.5,199.5 Z"/></g>
<g><path style="opacity:1" fill="#ef83aa" d="M 251.5,174.5 C 250.038,183.218 247.372,191.551 243.5,199.5C 242.094,199.973 241.427,200.973 241.5,202.5C 238.834,209.176 235.167,215.176 230.5,220.5C 235.474,211.587 240.14,202.421 244.5,193C 245.778,189.035 247.111,185.202 248.5,181.5C 249.101,179.559 250.101,177.225 251.5,174.5 Z"/></g>
<g><path style="opacity:1" fill="#f285ac" d="M 27.5,200.5 C 28.5,200.5 29.5,200.5 30.5,200.5C 32.6432,205.322 34.3099,210.322 35.5,215.5C 32.0534,210.941 29.3867,205.941 27.5,200.5 Z"/></g>
<g><path style="opacity:0.004" fill="#dedfdf" d="M 512.5,206.5 C 512.573,208.027 511.906,209.027 510.5,209.5C 510.427,207.973 511.094,206.973 512.5,206.5 Z"/></g>
<g><path style="opacity:0.004" fill="#e3e9e9" d="M 661.5,206.5 C 662.906,206.973 663.573,207.973 663.5,209.5C 662.094,209.027 661.427,208.027 661.5,206.5 Z"/></g>
<g><path style="opacity:0.004" fill="#dbdddd" d="M 761.5,213.5 C 761.573,215.027 760.906,216.027 759.5,216.5C 759.427,214.973 760.094,213.973 761.5,213.5 Z"/></g>
<g><path style="opacity:1" fill="#ee8eb2" d="M 35.5,215.5 C 36.5,215.5 37.5,215.5 38.5,215.5C 38.6287,217.216 38.962,218.883 39.5,220.5C 37.9373,219.055 36.604,217.389 35.5,215.5 Z"/></g>
<g><path style="opacity:0.482" fill="#b7babb" d="M 418.5,219.5 C 420.404,219.738 421.738,220.738 422.5,222.5C 420.596,222.262 419.262,221.262 418.5,219.5 Z"/></g>
<g><path style="opacity:0.035" fill="#fed5eb" d="M 39.5,220.5 C 41.2624,221.262 42.2624,222.596 42.5,224.5C 40.7376,223.738 39.7376,222.404 39.5,220.5 Z"/></g>
<g><path style="opacity:0.004" fill="#d8dad9" d="M 495.5,223.5 C 495.027,224.906 494.027,225.573 492.5,225.5C 492.973,224.094 493.973,223.427 495.5,223.5 Z"/></g>
<g><path style="opacity:0.004" fill="#ffe1ed" d="M 227.5,224.5 C 227.573,226.027 226.906,227.027 225.5,227.5C 225.427,225.973 226.094,224.973 227.5,224.5 Z"/></g>
<g><path style="opacity:0.855" fill="#fdc2d8" d="M 43.5,225.5 C 46.874,227.874 49.5407,230.874 51.5,234.5C 48.0969,232.1 45.4302,229.1 43.5,225.5 Z"/></g>
<g><path style="opacity:0.969" fill="#fdc8de" d="M 51.5,234.5 C 54.4274,235.757 56.7607,237.757 58.5,240.5C 55.5726,239.243 53.2393,237.243 51.5,234.5 Z"/></g>
<g><path style="opacity:0.922" fill="#fec4de" d="M 58.5,240.5 C 60.7488,241.08 62.4154,242.413 63.5,244.5C 61.2512,243.92 59.5846,242.587 58.5,240.5 Z"/></g>
<g><path style="opacity:0.573" fill="#fed3e8" d="M 63.5,244.5 C 65.4044,244.738 66.7377,245.738 67.5,247.5C 65.5956,247.262 64.2623,246.262 63.5,244.5 Z"/></g>
<g><path style="opacity:1" fill="#f4a5c3" d="M 67.5,247.5 C 71.7936,247.977 75.1269,249.977 77.5,253.5C 73.827,252 70.4937,250 67.5,247.5 Z"/></g>
<g><path style="opacity:0.984" fill="#ed719e" d="M 208.5,242.5 C 205.165,245.839 201.165,248.172 196.5,249.5C 194.62,249.229 193.287,249.896 192.5,251.5C 191.609,252.11 190.609,252.443 189.5,252.5C 185.67,254 181.67,254.667 177.5,254.5C 187.691,250.756 198.024,246.756 208.5,242.5 Z"/></g>
<g><path style="opacity:0.016" fill="#fee4f1" d="M 196.5,249.5 C 195.486,250.674 194.153,251.34 192.5,251.5C 193.287,249.896 194.62,249.229 196.5,249.5 Z"/></g>
<g><path style="opacity:0.071" fill="#ffe4f4" d="M 79.5,254.5 C 81.153,254.66 82.4863,255.326 83.5,256.5C 81.6203,256.771 80.287,256.104 79.5,254.5 Z"/></g>
<g><path style="opacity:0.984" fill="#f49fbe" d="M 83.5,256.5 C 85.8984,256.259 87.8984,256.926 89.5,258.5C 88.8333,258.5 88.1667,258.5 87.5,258.5C 85.847,258.34 84.5137,257.674 83.5,256.5 Z"/></g>
<g><path style="opacity:1" fill="#e45f92" d="M 124.5,254.5 C 140.775,256.712 157.109,257.045 173.5,255.5C 172.391,256.29 171.058,256.79 169.5,257C 157.833,257.667 146.167,257.667 134.5,257C 130.962,256.465 127.628,255.632 124.5,254.5 Z"/></g>
<g><path style="opacity:0.188" fill="#ffecf9" d="M 87.5,258.5 C 88.1667,258.5 88.8333,258.5 89.5,258.5C 91.3684,259.263 93.0351,260.263 94.5,261.5C 91.7594,261.293 89.4261,260.293 87.5,258.5 Z"/></g>
<g><path style="opacity:0.161" fill="#ffecfc" d="M 95.5,261.5 C 96.5,261.5 97.5,261.5 98.5,261.5C 99.1667,262.167 99.8333,262.833 100.5,263.5C 98.4471,263.598 96.7804,262.931 95.5,261.5 Z"/></g>
<g><path style="opacity:1" fill="#da99ae" d="M 172.5,262.5 C 171.791,263.404 170.791,263.737 169.5,263.5C 167.379,263.325 165.379,263.659 163.5,264.5C 162.432,263.566 161.099,263.232 159.5,263.5C 162.823,262.638 166.323,261.972 170,261.5C 171.07,261.528 171.903,261.861 172.5,262.5 Z"/></g>
<g><path style="opacity:0.451" fill="#fee1f3" d="M 100.5,263.5 C 103.228,263.171 105.562,263.837 107.5,265.5C 104.848,265.59 102.515,264.924 100.5,263.5 Z"/></g>
<g><path style="opacity:0.604" fill="#feeff8" d="M 169.5,263.5 C 165.8,265.281 161.8,266.281 157.5,266.5C 159.302,265.542 161.302,264.875 163.5,264.5C 165.379,263.659 167.379,263.325 169.5,263.5 Z"/></g>
<g><path style="opacity:0.998" fill="#ed7ba4" d="M 113.5,260.5 C 128.702,263.141 144.035,264.141 159.5,263.5C 161.099,263.232 162.432,263.566 163.5,264.5C 161.302,264.875 159.302,265.542 157.5,266.5C 150.886,267.904 144.053,268.571 137,268.5C 126.921,268.454 117.087,267.454 107.5,265.5C 105.562,263.837 103.228,263.171 100.5,263.5C 99.8333,262.833 99.1667,262.167 98.5,261.5C 104.216,262.377 109.883,263.377 115.5,264.5C 117.5,264.333 119.5,264.167 121.5,264C 118.599,263.125 115.932,261.958 113.5,260.5 Z"/></g>
</svg>
