<?xml version="1.0" encoding="UTF-8"?>
<!DOCTYPE svg PUBLIC "-//W3C//DTD SVG 1.1//EN" "http://www.w3.org/Graphics/SVG/1.1/DTD/svg11.dtd">
<svg xmlns="http://www.w3.org/2000/svg" version="1.1" width="812px" height="235px" style="shape-rendering:geometricPrecision; text-rendering:geometricPrecision; image-rendering:optimizeQuality; fill-rule:evenodd; clip-rule:evenodd" xmlns:xlink="http://www.w3.org/1999/xlink">
<g><path style="opacity:1" fill="#fefefe" d="M -0.5,-0.5 C 270.167,-0.5 540.833,-0.5 811.5,-0.5C 811.5,77.8333 811.5,156.167 811.5,234.5C 540.833,234.5 270.167,234.5 -0.5,234.5C -0.5,156.167 -0.5,77.8333 -0.5,-0.5 Z"/></g>
<g><path style="opacity:1" fill="#e87830" d="M 112.5,29.5 C 115.325,29.0807 117.491,30.0807 119,32.5C 131.347,53.8655 143.68,75.1988 156,96.5C 168.707,74.2515 181.54,52.0849 194.5,30C 196.167,29.3333 197.833,29.3333 199.5,30C 231.365,84.2226 262.865,138.723 294,193.5C 294.667,195.167 294.667,196.833 294,198.5C 202.237,199.665 110.403,199.832 18.5,199C 17.1698,196.123 17.3364,193.289 19,190.5C 50.1783,136.806 81.345,83.1392 112.5,29.5 Z"/></g>
<g><path style="opacity:1" fill="#f8d9c5" d="M 382.5,33.5 C 366.5,33.5 350.5,33.5 334.5,33.5C 334.5,35.8333 334.5,38.1667 334.5,40.5C 333.527,38.0521 333.194,35.3854 333.5,32.5C 350.009,32.1702 366.342,32.5036 382.5,33.5 Z"/></g>
<g><path style="opacity:1" fill="#e87a33" d="M 478.5,32.5 C 509.816,30.4042 531.649,43.7375 544,72.5C 550.095,91.0256 552.095,110.026 550,129.5C 548.512,149.647 541.012,167.147 527.5,182C 510.342,196.12 491.009,200.12 469.5,194C 449.284,185.107 436.117,169.94 430,148.5C 422.093,119.294 424.426,90.9611 437,63.5C 446.788,47.5193 460.621,37.1859 478.5,32.5 Z"/></g>
<g><path style="opacity:1" fill="#f8dbc9" d="M 615.5,196.5 C 615.5,196.167 615.5,195.833 615.5,195.5C 615.5,141.5 615.5,87.5 615.5,33.5C 599.5,33.5 583.5,33.5 567.5,33.5C 567.5,35.8333 567.5,38.1667 567.5,40.5C 566.527,38.0521 566.194,35.3854 566.5,32.5C 583.167,32.5 599.833,32.5 616.5,32.5C 616.832,87.3359 616.499,142.003 615.5,196.5 Z"/></g>
<g><path style="opacity:1" fill="#e87a34" d="M 711.5,32.5 C 742.816,30.4042 764.649,43.7375 777,72.5C 783.095,91.0256 785.095,110.026 783,129.5C 781.512,149.647 774.012,167.147 760.5,182C 743.342,196.12 724.009,200.12 702.5,194C 682.311,185.131 669.145,169.964 663,148.5C 656.463,123.653 657.13,98.9861 665,74.5C 673.505,52.4831 689.005,38.4831 711.5,32.5 Z"/></g>
<g><path style="opacity:1" fill="#e7772d" d="M 382.5,33.5 C 382.5,87.5 382.5,141.5 382.5,195.5C 380.167,195.5 377.833,195.5 375.5,195.5C 375.832,143.664 375.499,91.9973 374.5,40.5C 361.167,40.5 347.833,40.5 334.5,40.5C 334.5,38.1667 334.5,35.8333 334.5,33.5C 350.5,33.5 366.5,33.5 382.5,33.5 Z"/></g>
<g><path style="opacity:1" fill="#e7772d" d="M 615.5,195.5 C 613.167,195.5 610.833,195.5 608.5,195.5C 608.832,143.664 608.499,91.9973 607.5,40.5C 594.167,40.5 580.833,40.5 567.5,40.5C 567.5,38.1667 567.5,35.8333 567.5,33.5C 583.5,33.5 599.5,33.5 615.5,33.5C 615.5,87.5 615.5,141.5 615.5,195.5 Z"/></g>
<g><path style="opacity:1" fill="#ee9a64" d="M 374.5,40.5 C 375.499,91.9973 375.832,143.664 375.5,195.5C 377.833,195.5 380.167,195.5 382.5,195.5C 380.052,196.473 377.385,196.806 374.5,196.5C 374.5,144.5 374.5,92.5 374.5,40.5 Z"/></g>
<g><path style="opacity:1" fill="#fefefd" d="M 479.5,39.5 C 506.885,37.7274 526.052,49.394 537,74.5C 543.575,94.724 545.241,115.391 542,136.5C 538.861,153.625 531.027,168.125 518.5,180C 502.899,190.168 486.232,192.168 468.5,186C 458.659,181.001 450.826,173.835 445,164.5C 434.913,144.338 431.246,123.004 434,100.5C 435.243,80.5182 443.076,63.6849 457.5,50C 464.131,44.8548 471.464,41.3548 479.5,39.5 Z"/></g>
<g><path style="opacity:1" fill="#f3bb96" d="M 607.5,40.5 C 608.499,91.9973 608.832,143.664 608.5,195.5C 610.833,195.5 613.167,195.5 615.5,195.5C 615.5,195.833 615.5,196.167 615.5,196.5C 612.833,196.5 610.167,196.5 607.5,196.5C 607.5,144.5 607.5,92.5 607.5,40.5 Z"/></g>
<g><path style="opacity:1" fill="#fefefd" d="M 712.5,39.5 C 739.885,37.7274 759.052,49.394 770,74.5C 780.058,105.184 778.391,135.184 765,164.5C 749.294,187.422 728.127,194.589 701.5,186C 688.492,179.324 679.325,169.157 674,155.5C 663.695,127.071 664.029,98.738 675,70.5C 682.625,54.0228 695.125,43.6894 712.5,39.5 Z"/></g>
<g><path style="opacity:1" fill="#fefdfc" d="M 196.5,42.5 C 225.645,91.4428 254.312,140.776 282.5,190.5C 258.507,191.666 234.507,191.833 210.5,191C 193.887,162.435 177.554,133.768 161.5,105C 172.932,84.0599 184.598,63.2266 196.5,42.5 Z"/></g>
<g><path style="opacity:1" fill="#fefdfc" d="M 114.5,42.5 C 127.112,62.8784 139.112,83.7117 150.5,105C 134.553,133.728 118.22,162.228 101.5,190.5C 77.1735,191.666 52.8402,191.833 28.5,191C 57.0521,141.391 85.7188,91.8907 114.5,42.5 Z"/></g>
<g><path style="opacity:1" fill="#fefdfd" d="M 199.5,189.5 C 170.338,190.498 141.005,190.831 111.5,190.5C 126.106,164.721 140.939,139.055 156,113.5C 170.777,138.725 185.277,164.059 199.5,189.5 Z"/></g>
<g><path style="opacity:1" fill="#ed9962" d="M 199.5,189.5 C 200.043,189.56 200.376,189.893 200.5,190.5C 170.669,191.83 141.003,191.83 111.5,190.5C 141.005,190.831 170.338,190.498 199.5,189.5 Z"/></g>
</svg>
